<svg width="356" height="311" viewBox="0 0 356 311" fill="none" xmlns="http://www.w3.org/2000/svg">
<ellipse opacity="0.2" cx="186.122" cy="301.772" rx="167.424" ry="8.99" fill="#71ABDE"/>
<path fill-rule="evenodd" clip-rule="evenodd" d="M170.563 166.055C170.563 166.055 183.4 163.972 189.789 166.272C194.412 167.935 199.961 171.904 201.449 183.895C201.449 183.895 186.165 188.395 170.564 188.543C170.563 188.544 168.163 174.523 170.563 166.055Z" fill="#F3AE92"/>
<path opacity="0.5" fill-rule="evenodd" clip-rule="evenodd" d="M182.162 187.728C182.574 184.188 182.942 178.219 181.362 174.613C180.062 171.642 175.714 169.175 170.043 168.342C168.551 176.824 170.556 188.542 170.556 188.542C174.437 188.489 178.312 188.217 182.162 187.728H182.162Z" fill="#EB7C74"/>
<path opacity="0.2" fill-rule="evenodd" clip-rule="evenodd" d="M189.789 166.272C186.683 165.379 183.449 165.018 180.223 165.203C183.406 165.344 193.536 167.791 196.473 174.547C197.774 177.745 198.697 181.083 199.224 184.495C200.642 184.131 201.449 183.895 201.449 183.895C199.959 171.904 194.41 167.936 189.789 166.272Z" fill="white"/>
<path fill-rule="evenodd" clip-rule="evenodd" d="M75.0785 180.617C69.1145 178.793 69.4365 178.475 63.9375 176.486C58.4385 174.497 57.7254 174.286 52.9925 172.527C48.2596 170.768 31.4995 168.465 24.0755 190.249C16.4236 212.698 24.9465 220.023 29.9505 223.735C37.7185 229.498 55.6805 236.027 60.8806 238.155C60.8795 238.155 50.6914 201.34 75.0785 180.617Z" fill="#F29297"/>
<path fill-rule="evenodd" clip-rule="evenodd" d="M75.0785 180.617C69.1145 178.793 69.4365 178.475 63.9375 176.486C58.4385 174.497 57.7254 174.286 52.9925 172.527C48.2596 170.768 31.4995 168.465 24.0755 190.249C16.4236 212.698 24.9465 220.023 29.9505 223.735C37.7185 229.498 55.6805 236.027 60.8806 238.155C60.8795 238.155 50.6914 201.34 75.0785 180.617Z" fill="#F29297"/>
<path fill-rule="evenodd" clip-rule="evenodd" d="M73.853 180.995C65.853 178.852 54.977 174.501 51.1939 173.556C47.4108 172.611 41.7359 172.893 38.6149 175.542C35.4939 178.191 43.17 175.513 52.342 178.634C61.514 181.755 65.376 183.62 68.431 184.792C71.4859 185.964 73.853 180.995 73.853 180.995Z" fill="#F5A9A7"/>
<path opacity="0.5" fill-rule="evenodd" clip-rule="evenodd" d="M48.0496 200.173C42.6326 197.71 36.7266 195.235 33.2495 191.36C26.1925 183.495 31.7605 177.16 36.1655 174.06C31.5525 176.633 27.0596 181.493 24.0756 190.249C16.4236 212.698 24.9465 220.023 29.9496 223.735C37.7186 229.498 55.6805 236.027 60.8806 238.155C60.8806 238.155 56.5076 222.348 60.3527 205.619C56.1106 203.795 51.9966 201.967 48.0496 200.173Z" fill="#EC6469"/>
<path opacity="0.5" fill-rule="evenodd" clip-rule="evenodd" d="M30.5276 178.635C27.6157 182.032 25.4202 185.983 24.0726 190.25C16.4207 212.699 24.9436 220.024 29.9467 223.736C37.7157 229.499 55.6776 236.028 60.8777 238.156C59.481 232.407 58.776 226.511 58.7776 220.594C50.3569 217.222 42.2502 213.113 34.5518 208.316C18.2606 197.669 29.5746 180.06 30.5276 178.635Z" fill="#E73555"/>
<path fill-rule="evenodd" clip-rule="evenodd" d="M95.3662 248.19C94.8287 248.921 93.9545 249.326 93.0492 249.264C91.0282 249.23 87.0032 247.273 76.6983 244.025C68.4132 241.414 63.2203 240.372 61.6673 238.983C57.7983 235.523 52.9912 222.521 56.5313 206.198C59.8413 190.939 69.8813 182.838 73.3313 181.222C76.1563 179.899 79.2104 180.176 84.9943 181.9C88.4941 182.942 92.0574 183.758 95.6621 184.341C97.7183 184.675 99.6873 184.917 101.546 185.088C106.441 185.536 105.534 187.361 105.534 187.361C105.534 187.361 88.6443 193.656 84.7793 212.07C79.9113 235.259 95.3662 248.19 95.3662 248.19Z" fill="#16A461"/>
<path fill-rule="evenodd" clip-rule="evenodd" d="M73.8527 180.996C73.6776 181.065 73.5027 181.14 73.3286 181.222C71.5345 182.174 69.8846 183.377 68.4287 184.793C75.848 187.735 83.4416 190.216 91.1663 192.224C91.1666 192.224 95.5126 191.808 98.8196 191.119C100.001 190.283 101.105 189.598 102.063 189.055C101.136 188.587 100.143 188.266 99.1187 188.101C90.7997 186.313 78.9316 182.618 73.8527 180.996Z" fill="#3EC664"/>
<path fill-rule="evenodd" clip-rule="evenodd" d="M57.0213 204.242C56.8503 204.886 56.6773 205.525 56.5313 206.197C52.9912 222.52 57.7983 235.522 61.6673 238.983C63.2203 240.372 68.4142 241.415 76.6983 244.025C87.0033 247.273 91.0282 249.231 93.0492 249.264C93.9545 249.326 94.8286 248.921 95.3662 248.19C95.3662 248.19 81.3553 236.45 84.2303 215.295C74.7813 211.807 65.6012 208.016 57.0213 204.242Z" fill="#16935D"/>
<path fill-rule="evenodd" clip-rule="evenodd" d="M93.0502 249.263C93.9553 249.325 94.8295 248.92 95.3671 248.189C91.3011 244.375 88.1873 239.661 86.2762 234.424L78.3762 227.854C78.3762 227.854 67.5652 224.459 55.3252 219.143C55.6462 229.127 58.8982 236.502 61.6702 238.981C63.2231 240.37 68.4171 241.412 76.7012 244.023C87.0042 247.272 91.0292 249.23 93.0502 249.263Z" fill="#0E7F4C"/>
<path fill-rule="evenodd" clip-rule="evenodd" d="M70.4199 211.357C73.9249 190.623 92.7789 184.724 95.0919 184.24C91.941 183.707 88.8228 182.997 85.7518 182.114H85.7379C82.5759 182.463 66.3808 189.814 63.4578 208.394C60.6248 226.394 67.8428 239.456 70.3848 242.127C72.2319 242.661 74.3338 243.276 76.6978 244.02C77.8729 244.391 78.9559 244.741 79.9738 245.077C79.9738 245.077 67.0529 231.274 70.4199 211.357Z" fill="#FFD348"/>
<path fill-rule="evenodd" clip-rule="evenodd" d="M81.8867 183.486C79.6624 184.581 77.5668 185.92 75.6387 187.479C78.0327 188.325 80.6666 189.209 83.4116 190.053C85.5833 188.432 87.9231 187.05 90.3906 185.931C87.4807 185.138 84.5477 184.286 81.8867 183.486Z" fill="#FFE568"/>
<g style="mix-blend-mode:multiply" opacity="0.1">
<path fill-rule="evenodd" clip-rule="evenodd" d="M79.9699 245.081H79.9759C79.9759 245.081 67.0529 231.274 70.4199 211.358C70.4969 210.905 70.5888 210.468 70.6799 210.03C68.3191 209.069 65.9896 208.103 63.6909 207.13C63.6088 207.55 63.5258 207.971 63.4578 208.404C60.6248 226.404 67.8428 239.466 70.3848 242.137L70.4008 242.143L71.5499 242.476L71.9738 242.6L72.9669 242.892L73.4909 243.048C73.8409 243.148 74.2009 243.262 74.5649 243.372L75.0558 243.52C75.5888 243.684 76.1338 243.852 76.6968 244.029C77.2908 244.217 77.8608 244.399 78.4098 244.576C78.9589 244.753 79.4689 244.915 79.9699 245.081Z" fill="#E85D1C"/>
</g>
<g style="mix-blend-mode:multiply" opacity="0.3">
<path fill-rule="evenodd" clip-rule="evenodd" d="M78.4148 244.572C78.9418 244.741 79.4458 244.906 79.9368 245.072L79.9728 245.083H79.9788C75.1462 239.38 71.8864 232.514 70.5217 225.165C68.3588 224.383 65.8528 223.447 63.1377 222.377C64.3376 232.963 68.5647 240.218 70.3877 242.134H70.3977L71.5437 242.466H71.5537L71.8588 242.555C72.3174 242.688 72.79 242.828 73.2767 242.973L73.4948 243.038L74.5558 243.358H74.5658L75.0568 243.506C75.5887 243.669 76.1328 243.837 76.6947 244.014C77.2887 244.202 77.8586 244.384 78.4077 244.561L78.4148 244.572Z" fill="#E85D1C"/>
</g>
<path fill-rule="evenodd" clip-rule="evenodd" d="M275.69 161.566C275.69 161.566 272.605 160.454 261.075 164.925C249.545 169.396 182.008 192.852 105.536 187.36C105.536 187.36 89.7703 185.2 80.1224 207.418C70.4744 229.636 89.2274 245.367 89.2274 245.367C89.2274 245.367 115.472 260.348 178.82 263.286C239.751 266.112 269.141 259.286 282.047 255.986C295.439 252.563 300.029 249.833 300.811 248.108C301.557 246.453 275.69 161.566 275.69 161.566Z" fill="#FFD348"/>
<g style="mix-blend-mode:multiply" opacity="0.1">
<path fill-rule="evenodd" clip-rule="evenodd" d="M154.118 230.711C130.577 230.647 103.185 222.687 78.2312 213.038C73.5902 232.238 89.2221 245.368 89.2221 245.368C89.2221 245.368 115.468 260.349 178.815 263.287C239.746 266.113 269.136 259.287 282.042 255.987C295.434 252.564 300.024 249.834 300.806 248.109C300.996 247.69 299.468 241.896 297.085 233.493L250.216 222.517C250.216 222.517 208.31 230.859 154.118 230.711Z" fill="#E85D1C"/>
</g>
<path fill-rule="evenodd" clip-rule="evenodd" d="M275.689 161.566C275.689 161.566 272.605 160.454 261.074 164.925C249.543 169.396 182.005 192.852 105.531 187.36C105.531 187.36 92.2201 185.553 82.5762 202.497C146.115 223.666 219.546 207.418 242.989 200.003L276.91 188.814L281.987 182.37C278.375 170.376 275.689 161.566 275.689 161.566Z" fill="#FFDA60"/>
<path fill-rule="evenodd" clip-rule="evenodd" d="M259.817 176.423C259.817 176.423 276.87 163.371 271.158 164.631C265.446 165.891 240.486 178.364 188.344 186.809C158.823 191.568 128.765 192.003 99.1188 188.099C96.2306 188.956 93.5322 190.355 91.168 192.222C104.236 195.305 129.235 200.001 163.484 197.709C218.407 194.037 250.081 180.567 259.817 176.423Z" fill="#FFE568"/>
<path d="M82.5762 202.497C146.115 223.666 219.546 207.418 242.989 200.003" stroke="#FFEAA8" stroke-width="3"/>
<path fill-rule="evenodd" clip-rule="evenodd" d="M256.851 237.916C246.678 241.527 168.474 258.885 78.376 227.855C80.2948 234.587 84.0504 240.651 89.2219 245.368C89.2219 245.368 115.467 260.349 178.815 263.287C239.746 266.113 269.136 259.287 282.042 255.987C295.434 252.564 300.024 249.834 300.806 248.109C301.047 247.577 298.524 238.399 294.995 226.209L256.851 237.916Z" fill="#FECB2F"/>
<g style="mix-blend-mode:multiply" opacity="0.3">
<path fill-rule="evenodd" clip-rule="evenodd" d="M300.807 248.106C300.739 247.071 300.545 246.049 300.23 245.061L278.888 244.077C254.242 255.266 148.018 269.354 78.377 227.855C79.2371 231.057 80.5612 234.117 82.3071 236.936C84.1862 240.071 86.5161 242.912 89.2222 245.368C89.222 245.368 115.467 260.349 178.815 263.287C239.746 266.113 269.136 259.287 282.042 255.987C295.435 252.561 300.025 249.83 300.807 248.106Z" fill="#E85D1C"/>
</g>
<path d="M256.851 237.916C246.678 241.527 168.474 258.885 78.376 227.855" stroke="#FFE568" stroke-width="3"/>
<path fill-rule="evenodd" clip-rule="evenodd" d="M104.464 215.312C99.2003 214.178 96.6454 213.598 92.8894 212.971C86.3584 211.882 85.5084 220.434 90.5564 223.271C94.4712 225.445 98.702 226.993 103.095 227.858C105.686 228.442 108.341 228.691 110.995 228.601C113.531 228.465 115.895 226.967 116.465 224.694C117.22 221.897 115.823 218.968 113.174 217.794C110.367 216.662 107.447 215.83 104.464 215.312Z" fill="#16A461"/>
<path fill-rule="evenodd" clip-rule="evenodd" d="M90.5562 223.268C94.471 225.442 98.7018 226.99 103.095 227.855C105.686 228.439 108.341 228.688 110.995 228.598C113.208 228.567 115.222 227.315 116.229 225.345C106.609 222.936 96.8992 219.872 87.4202 216.466C86.9094 219.17 88.1683 221.901 90.5562 223.268Z" fill="#16935D"/>
<path fill-rule="evenodd" clip-rule="evenodd" d="M108.07 226.378C107.47 226.333 107.176 226.306 106.585 226.243C105.985 225.601 105.693 225.275 105.133 224.615C101.841 220.659 100.642 218.62 98.5168 217.88C97.0838 217.38 95.4888 217.435 94.5668 219.223C94.1175 220.199 94.1055 221.319 94.5339 222.304C93.8268 222.27 93.4728 222.246 92.7648 222.183C92.2907 220.853 92.4245 219.382 93.1308 218.159C94.2408 216.067 96.7676 215.174 98.9457 216.103C101.433 216.973 102.937 219.217 105.609 222.458C105.993 222.948 106.19 223.191 106.596 223.671L106.647 223.677C107.164 221.292 107.381 220.095 107.726 217.702C108.39 217.768 108.726 217.794 109.396 217.831C109.124 220.704 108.681 223.558 108.07 226.378L108.07 226.378Z" fill="#FFD348"/>
<path fill-rule="evenodd" clip-rule="evenodd" d="M275.691 161.565C272.691 162.365 263.132 171.798 256.616 180.45C250.1 189.102 243.465 196.45 242.99 200.003C242.515 203.556 247.848 215.879 250.217 222.514C252.586 229.149 255.786 236.614 256.852 237.914C257.918 239.214 272.847 242.414 278.889 244.075C284.931 245.736 298.675 248.575 300.808 248.104C302.941 247.633 323.333 226.136 333.632 212.047C341.382 201.557 348.46 190.587 354.825 179.203C355.654 177.426 355.664 174.173 351.28 173.462C346.896 172.751 326.99 170.224 311.234 167.775C296.491 165.485 279.008 160.685 275.691 161.565Z" fill="#F8E9D0"/>
<path fill-rule="evenodd" clip-rule="evenodd" d="M353.187 174.051C352.585 173.759 351.942 173.561 351.28 173.463C346.897 172.752 326.99 170.225 311.234 167.776C296.491 165.484 279.008 160.685 275.69 161.565C272.69 162.365 263.131 171.798 256.615 180.45C251.278 187.537 245.867 193.742 243.821 197.711C247.563 196.526 261.831 194.011 291.286 188.542C296.772 187.524 303.369 186.231 308.786 185.272C323.823 182.539 338.657 178.79 353.187 174.051L353.187 174.051Z" fill="#FCF1E0"/>
<path fill-rule="evenodd" clip-rule="evenodd" d="M353.187 174.051C356.338 178.066 350.414 182.1 344.004 187.606C337.594 193.112 322.936 203.719 295.764 212.048C267.644 220.669 261.509 220.669 250.219 222.513C252.588 229.148 255.788 236.613 256.854 237.913C257.92 239.213 272.849 242.413 278.891 244.074C284.933 245.735 298.677 248.574 300.81 248.103C302.943 247.632 323.335 226.135 333.634 212.046C341.383 201.556 348.461 190.586 354.825 179.202C355.313 178.306 355.415 177.249 355.105 176.277C354.796 175.304 354.103 174.5 353.187 174.051Z" fill="#F5DFCE"/>
<path fill-rule="evenodd" clip-rule="evenodd" d="M345.494 174.552C345.494 174.552 324.457 173.315 308.762 170.616C294.445 168.154 274.962 164.116 271.162 164.634C267.086 168.269 263.295 172.211 259.821 176.426C261.291 175.467 268.166 175.315 287.821 176.433C304.339 177.372 336.144 177.105 345.494 174.552Z" fill="#FFF8ED"/>
<path fill-rule="evenodd" clip-rule="evenodd" d="M352.743 182.963C343.293 198.563 312.717 228.671 278.89 244.076C284.933 245.735 298.676 248.576 300.809 248.105C302.942 247.634 323.334 226.137 333.633 212.048C342.515 199.898 349.433 188.671 352.743 182.963H352.743Z" fill="#EDC1AD"/>
<path fill-rule="evenodd" clip-rule="evenodd" d="M351.28 173.463C347.241 172.808 330.025 170.611 315.018 168.354C315.018 168.354 304.812 177.441 310.469 193.739C316.126 210.037 333.632 212.048 333.632 212.048C341.382 201.558 348.461 190.588 354.825 179.204C355.655 177.427 355.664 174.175 351.28 173.463Z" fill="#194A72"/>
<path fill-rule="evenodd" clip-rule="evenodd" d="M350.691 173.371L350.315 173.315L350.103 173.283L349.727 173.227L349.427 173.184L349.056 173.13L348.717 173.082L348.306 173.024L347.952 172.974L347.464 172.906L347.145 172.861L346.545 172.778L346.256 172.739C339.045 171.739 326.4 170.066 315.021 168.355C310.647 172.86 308.383 179.005 308.79 185.271C332.621 181.049 355.861 175.305 351.283 173.463L350.842 173.394L350.691 173.371Z" fill="#29688C"/>
<path fill-rule="evenodd" clip-rule="evenodd" d="M354.996 178.768C355.022 178.693 355.047 178.617 355.069 178.539C355.083 178.49 355.096 178.439 355.108 178.392C355.126 178.321 355.141 178.25 355.157 178.178C355.169 178.122 355.18 178.064 355.19 178.007C355.2 177.95 355.208 177.874 355.217 177.807C355.226 177.74 355.233 177.68 355.238 177.615C355.238 177.565 355.238 177.515 355.244 177.463C355.251 177.304 355.248 177.144 355.236 176.985C355.236 176.95 355.236 176.914 355.228 176.879C355.218 176.788 355.204 176.698 355.188 176.608C355.181 176.571 355.175 176.534 355.168 176.497C355.148 176.404 355.125 176.312 355.097 176.22C355.088 176.189 355.079 176.161 355.069 176.131C355.036 176.031 355.001 175.931 354.959 175.836L354.949 175.813C354.793 175.461 354.576 175.138 354.308 174.861L354.3 174.852C354.211 174.761 354.117 174.674 354.019 174.593L353.956 174.541C353.855 174.459 353.749 174.383 353.64 174.312C353.614 174.295 353.587 174.279 353.562 174.263C353.443 174.189 353.32 174.116 353.186 174.05C356.337 178.065 350.413 182.099 344.003 187.605C339.866 191.159 329.991 197.023 317.255 204.237C324.255 210.715 333.644 212.404 333.631 212.048C341.381 201.558 348.46 190.588 354.824 179.204C354.872 179.104 354.916 178.994 354.957 178.883C354.972 178.846 354.983 178.802 354.996 178.768Z" fill="#123668"/>
<path fill-rule="evenodd" clip-rule="evenodd" d="M309.892 176.927C324.363 176.882 339.517 176.185 345.492 174.553C345.492 174.553 327.705 173.506 312.639 171.239C311.461 172.997 310.536 174.911 309.892 176.927Z" fill="#3C8DAA"/>
<path fill-rule="evenodd" clip-rule="evenodd" d="M335.461 209.52C335.919 208.881 336.371 208.246 336.818 207.613L336.879 207.528C337.346 206.869 337.803 206.216 338.252 205.567L338.593 205.075C339.006 204.48 339.413 203.89 339.814 203.305C339.849 203.253 339.886 203.2 339.921 203.148C340.352 202.517 340.776 201.893 341.191 201.276C341.297 201.119 341.402 200.962 341.507 200.807C341.876 200.257 342.24 199.713 342.598 199.176L342.741 198.962C343.141 198.362 343.53 197.772 343.907 197.192L344.178 196.777C344.516 196.259 344.848 195.749 345.173 195.246C345.218 195.176 345.264 195.105 345.309 195.037C345.672 194.474 346.026 193.921 346.371 193.38L346.597 193.025C346.901 192.548 347.198 192.079 347.488 191.618L347.615 191.418C347.944 190.894 348.262 190.384 348.571 189.887C348.624 189.804 348.671 189.721 348.725 189.639C349.004 189.187 349.276 188.746 349.541 188.316C349.571 188.266 349.603 188.216 349.634 188.165C349.925 187.688 350.206 187.227 350.476 186.781L350.565 186.634C350.823 186.207 351.072 185.793 351.309 185.397L351.345 185.338C351.598 184.912 351.84 184.505 352.07 184.116L352.097 184.07C352.325 183.683 352.541 183.313 352.743 182.97C348.419 190.107 339.664 200.283 328.208 210.696C329.968 211.323 331.785 211.779 333.633 212.055C334.129 211.377 334.618 210.702 335.099 210.031L335.461 209.52Z" fill="#0E2D54"/>
<path fill-rule="evenodd" clip-rule="evenodd" d="M103.974 188.543C103.483 192.157 105.121 198.259 114.174 201.565C123.227 204.871 136.374 202.212 137.793 202.212C139.212 202.212 140.784 203.156 139.839 208.351C138.894 213.546 140.471 220.669 140.471 220.669C138.916 221.697 138.374 223.725 139.21 225.391C140.469 228.654 137.951 231.791 137.951 235.258C137.951 238.725 135.905 248.309 144.719 249.258C153.533 250.207 175.411 240.882 175.096 238.15C174.78 235.418 168.424 233.787 164.913 228.621C161.402 223.455 162.576 191.677 149.086 191.19C135.595 190.703 103.974 188.543 103.974 188.543Z" fill="url(#paint0_linear)"/>
<path fill-rule="evenodd" clip-rule="evenodd" d="M111.899 105.756C111.899 105.756 104.309 103.418 97.7354 110.306C92.4104 115.884 88.0074 124.539 92.3844 127.932C96.7615 131.325 111.899 105.756 111.899 105.756Z" fill="#28BBE2"/>
<g style="mix-blend-mode:multiply" opacity="0.2">
<path fill-rule="evenodd" clip-rule="evenodd" d="M111.899 105.757C106.753 107.971 102.248 111.444 98.7988 115.857C94.7179 120.94 92.252 121.023 92.193 118.157C90.282 122.104 89.8001 125.933 92.38 127.933C96.762 131.322 111.899 105.757 111.899 105.757Z" fill="#242357"/>
</g>
<path fill-rule="evenodd" clip-rule="evenodd" d="M87.0584 137.797C84.9155 137.474 80.5315 138.609 78.1415 144.086C75.7514 149.563 74.0234 162.446 77.4764 166.963C80.9294 171.48 85.3274 170.319 85.3274 170.319L87.0584 137.797Z" fill="#28BBE2"/>
<g style="mix-blend-mode:multiply" opacity="0.2">
<path fill-rule="evenodd" clip-rule="evenodd" d="M80.447 154.099C79.547 160.275 76.386 160.299 75.54 158.59C75.5591 162.04 76.104 165.165 77.478 166.962C80.931 171.478 85.329 170.318 85.329 170.318L87.0599 137.797C87.0599 137.797 82.1931 142.143 80.447 154.099Z" fill="#242357"/>
</g>
<path fill-rule="evenodd" clip-rule="evenodd" d="M142.725 104.346C138.579 102.009 125.425 100.046 115.202 104.018C104.979 107.99 89.8328 128.267 84.1188 145.046C78.4049 161.825 83.2398 177.058 101.545 179.184C119.85 181.31 129.299 178.784 133.745 176.66C138.191 174.536 145.275 159.213 148.413 142.112C151.551 125.011 142.725 104.346 142.725 104.346Z" fill="#28BBE2"/>
<g style="mix-blend-mode:multiply" opacity="0.2">
<path fill-rule="evenodd" clip-rule="evenodd" d="M142.725 104.346C141.543 103.68 133.085 102.667 124.415 105.375C116.42 107.875 103.115 117.533 95.9597 130.948C88.8048 144.363 96.6417 170.707 95.9597 172.623C95.4237 174.123 89.7858 173.63 85.2227 170.154C88.3517 174.954 93.7107 178.274 101.544 179.184C119.85 181.309 129.298 178.784 133.744 176.66C138.19 174.536 145.274 159.213 148.412 142.112C151.55 125.011 142.725 104.346 142.725 104.346Z" fill="#242357"/>
</g>
<path opacity="0.2" fill-rule="evenodd" clip-rule="evenodd" d="M83.1404 139.216C80.7934 140.563 78.2745 143.974 77.3584 148.607C76.4424 153.24 78.5705 152.539 79.1974 150.448C79.8244 148.357 80.6805 143.554 83.0564 140.867C84.9914 138.676 84.0815 138.677 83.1404 139.216Z" fill="#F5FFFE"/>
<path opacity="0.2" fill-rule="evenodd" clip-rule="evenodd" d="M104.787 106.549C101.488 107.589 98.6573 109.751 96.7867 112.66C95.3687 115.194 96.9286 115.823 98.4866 114.125C100.045 112.427 103.079 108.574 106.129 107.44C109.179 106.306 107.484 105.757 104.787 106.549Z" fill="#F5FFFE"/>
<path opacity="0.2" fill-rule="evenodd" clip-rule="evenodd" d="M125.315 102.742C126.07 102.842 123.355 103.595 119.224 105.757C114.806 108.069 108.316 113.394 105.624 115.991C102.932 118.588 101.254 116.236 108.337 109.673C113.728 104.674 121.709 102.285 125.315 102.742Z" fill="#F5FFFE"/>
<path fill-rule="evenodd" clip-rule="evenodd" d="M167.641 121.474C168.679 123.444 172.687 136.068 169.091 142.984C165.495 149.9 161.61 145.384 161.61 145.384L165.11 122.227L167.641 121.474Z" fill="#007CB6"/>
<path fill-rule="evenodd" clip-rule="evenodd" d="M167.401 126.041C167.275 124.599 166.995 123.175 166.566 121.793L165.11 122.225L161.61 145.382C162.282 146.115 163.173 146.612 164.15 146.797C163.817 146.179 163.593 145.836 163.593 145.836C163.593 145.836 168.611 138.234 167.401 126.041Z" fill="#00629E"/>
<path fill-rule="evenodd" clip-rule="evenodd" d="M169.766 141.366C167.733 139.994 165.072 139.994 163.039 141.366C161.104 142.874 160.559 147.882 160.559 147.882L162.425 159.789C163.485 160.659 164.742 161.26 166.085 161.538C167.484 161.621 168.842 161.053 169.766 160.001C170.547 159.342 172.303 159.342 172.961 157.586C173.619 155.83 173.62 153.744 174.498 152.536C175.375 151.328 178.098 149.353 176.898 146.169C175.698 142.985 175.189 141.494 175.905 139.033C176.539 136.856 177.586 134.994 176.426 133.583C174.984 131.827 171.997 133.215 170.557 135.52C170.609 137.499 170.342 139.473 169.766 141.366Z" fill="#F8C6A3"/>
<path fill-rule="evenodd" clip-rule="evenodd" d="M170.858 148.894C170.836 148.138 167.927 147.305 165.886 145.278C163.845 143.251 165.886 139.851 168.315 140.657C166.544 140.029 164.579 140.292 163.036 141.364C161.101 142.872 160.555 147.88 160.555 147.88L162.421 159.787C163.482 160.657 164.738 161.258 166.082 161.536C167.005 161.65 167.938 161.409 168.691 160.861C167.925 161.181 167.041 160.957 166.52 160.312C165.52 159.194 166.872 156.819 167.543 155.268C168.214 153.717 164.443 152.511 166.343 149.168C167.275 147.523 170.883 149.652 170.858 148.894Z" fill="#F2A37C"/>
<path fill-rule="evenodd" clip-rule="evenodd" d="M174.573 132.798C172.889 133.046 171.411 134.048 170.557 135.52C170.609 137.499 170.342 139.473 169.765 141.367C169.765 141.367 171.814 142.69 173.283 143.718C172.745 142.911 172.366 142.009 172.168 141.06C171.543 139.076 171.594 136.94 172.313 134.988C172.761 133.998 173.569 133.215 174.573 132.798V132.798Z" fill="#F2A37C"/>
<path opacity="0.3" fill-rule="evenodd" clip-rule="evenodd" d="M175.2 138.45C174.238 140.589 175.079 143.364 175.888 145.338C176.697 147.312 176.817 149.152 174.782 152.183C175.841 150.955 177.982 149.061 176.899 146.167C175.705 142.984 175.189 141.492 175.905 139.031C176.539 136.854 177.586 134.992 176.426 133.581C176.816 134.285 176.318 135.962 175.2 138.45Z" fill="white"/>
<path fill-rule="evenodd" clip-rule="evenodd" d="M158.64 115.98C158.64 115.98 164.462 114.689 165.514 125.302C166.725 137.494 161.706 145.097 161.706 145.097C161.706 145.097 167.545 153.969 164.467 164.549C162.444 171.5 128.082 178.229 101.543 172.388C101.543 172.388 102.433 148.643 110.943 132.388C115.95 122.738 123.949 114.971 133.743 110.251L142.728 109.671C142.728 109.671 146.879 114.993 150.815 116.643C154.751 118.293 158.64 115.98 158.64 115.98Z" fill="#EFF8FC"/>
<path fill-rule="evenodd" clip-rule="evenodd" d="M130.294 174.279L142.449 164.549C142.449 164.549 127.835 167.708 119.393 166.076C110.951 164.444 108.951 155.941 111.899 152.183L109.699 147.176L105.287 147.711C103.257 155.798 102.004 164.061 101.545 172.387C110.992 174.36 120.67 174.997 130.294 174.279Z" fill="#CCE4EA"/>
<path fill-rule="evenodd" clip-rule="evenodd" d="M149.083 141.24C149.083 141.24 158.247 141.54 161.707 145.097C162.212 144.384 162.618 143.607 162.914 142.785C158.849 139.999 153.663 139.42 149.083 141.24Z" fill="#CCE4EA"/>
<path fill-rule="evenodd" clip-rule="evenodd" d="M114.077 149.839C117.832 150.786 122.767 155.672 132.717 156.324C142.667 156.976 147.196 153.909 151.829 149.839C146.211 152.051 139.992 152.199 134.275 150.258C123.459 146.528 120.375 137.287 109.293 137.036C109.117 137.036 108.949 137.045 108.777 137.049C104.99 146.236 103.161 156.707 102.295 163.849L114.077 149.839Z" fill="#CCE4EA"/>
<path fill-rule="evenodd" clip-rule="evenodd" d="M153.386 128.242C153.386 128.242 153.201 136.226 146.786 138.45C146.786 138.45 156.272 138.35 156.546 132.789C156.82 127.228 153.386 128.242 153.386 128.242Z" fill="#A9CBD3"/>
<path fill-rule="evenodd" clip-rule="evenodd" d="M149.083 119.706C149.083 119.706 149.351 127.621 154.118 128.924C159.053 130.272 155.031 119.829 154.362 119.743C153.693 119.657 149.083 119.706 149.083 119.706Z" fill="#A9CBD3"/>
<path fill-rule="evenodd" clip-rule="evenodd" d="M153.122 118.141C150.647 119.241 149.486 122.188 149.28 124.146C149.074 126.104 149.094 126.487 148.606 126.38C146.897 126.141 145.311 125.357 144.082 124.146C141.819 122.112 147.175 114.126 147.175 114.126H148.162C150.084 114.127 151.826 115.254 152.613 117.007L153.122 118.141Z" fill="#A9CBD3"/>
<path fill-rule="evenodd" clip-rule="evenodd" d="M161.147 120.337C162.479 121.844 162.377 125.019 162.479 125.681C162.58 126.343 165.845 124.041 166.086 122.796C166.326 121.551 164.398 116.152 164.398 116.152L161.147 120.337Z" fill="#A9CBD3"/>
<path fill-rule="evenodd" clip-rule="evenodd" d="M135.343 111.655L141.689 111.245C143.717 116.431 143.717 122.191 141.689 127.377C138.315 136.321 131.573 140.561 123.925 139.755L135.343 111.655Z" fill="#CCE4EA"/>
<path fill-rule="evenodd" clip-rule="evenodd" d="M133.739 110.253L140.085 109.843C142.113 115.029 142.113 120.788 140.085 125.974C136.71 134.919 129.968 139.158 122.321 138.353L133.739 110.253Z" fill="#007CB6"/>
<path fill-rule="evenodd" clip-rule="evenodd" d="M122.322 138.353C123.49 138.474 124.667 138.472 125.834 138.347C129.341 134.314 133.511 129.254 135.507 125.836C138.14 121.312 138.552 115.831 136.625 110.964C136.399 110.629 136.108 110.343 135.77 110.122L133.74 110.253L122.322 138.353Z" fill="#00629E"/>
<path fill-rule="evenodd" clip-rule="evenodd" d="M121.125 135.493C121.125 135.493 89.9021 174.276 87.5731 176.954C85.2441 179.632 84.7792 182.31 79.4221 182.194C74.0651 182.078 70.1072 183.125 65.6821 184.173C61.2571 185.221 58.1141 184.873 58.4622 182.309C58.8102 179.745 63.9352 176.487 63.9352 176.487L52.9902 172.528C54.2513 170.916 56.1825 169.972 58.2292 169.966C61.8383 169.849 67.7772 171.48 69.5243 171.48C71.2714 171.48 72.9012 170.315 76.1622 165.89C79.4232 161.465 104.34 127.931 104.34 127.931L121.125 135.493Z" fill="#F8C6A3"/>
<path fill-rule="evenodd" clip-rule="evenodd" d="M100.775 132.73C98.7513 135.455 96.0564 139.083 93.1754 142.96C95.4884 145.699 97.8644 148 98.8754 148.253C100.188 148.581 103.656 147.662 105.286 147.711C105.286 147.711 85.5323 173.971 83.0154 176.865C80.4984 179.759 75.7444 178.736 71.3934 179.986C67.0425 181.236 61.6604 185.241 58.6084 183.486C59.2974 184.95 62.0594 185.032 65.6833 184.174C70.1073 183.125 74.0674 182.074 79.4233 182.195C84.7793 182.316 85.2463 179.633 87.5743 176.955C89.3373 174.929 107.644 152.228 116.446 141.303L100.775 132.73Z" fill="#F2A37C"/>
<path fill-rule="evenodd" clip-rule="evenodd" d="M66.9802 174.851C66.9802 174.851 56.2233 172.259 55.2963 171.908C54.4862 171.602 55.2633 170.622 55.8752 170.423C54.7303 170.832 53.7284 171.564 52.9902 172.53L63.9352 176.489C64.9214 175.891 65.9377 175.344 66.9803 174.851H66.9802Z" fill="#F2A37C"/>
<path opacity="0.3" fill-rule="evenodd" clip-rule="evenodd" d="M76.1628 165.892C72.9019 170.317 71.2719 171.482 69.5249 171.482C67.778 171.482 61.8398 169.851 58.2299 169.968C57.9601 169.978 57.691 170.002 57.4238 170.04C61.1708 170.092 65.3458 171.68 67.4178 172.218C69.4899 172.756 71.4178 173.218 73.8518 170.423C76.2858 167.628 92.6368 143.689 92.6418 143.681C85.6858 153.046 77.8888 163.546 76.1628 165.892Z" fill="white"/>
<path fill-rule="evenodd" clip-rule="evenodd" d="M133.735 110.253C131.782 107.153 122.256 107.338 114.618 113.853C105.932 121.261 97.7314 129.733 97.7314 129.733C97.7314 129.733 98.8645 133.873 105.237 139.481C108.483 142.471 112.745 144.113 117.158 144.074C117.158 144.074 128.821 131.626 132.617 125.128C135.251 120.603 135.663 115.12 133.735 110.253Z" fill="#DEF1F8"/>
<path fill-rule="evenodd" clip-rule="evenodd" d="M105.242 139.479C108.488 142.469 112.75 144.111 117.162 144.072C117.162 144.072 128.824 131.624 132.621 125.125C133.925 122.912 134.699 120.427 134.883 117.865L134.872 117.811C131.762 124.978 116.872 141.533 97.7354 129.731C97.7352 129.731 98.8683 133.871 105.242 139.479Z" fill="#CCE4EA"/>
<path fill-rule="evenodd" clip-rule="evenodd" d="M130.307 109.722C125.544 109.478 120.837 110.84 116.941 113.589C113.305 116.167 110.602 119.165 116.941 119.574C123.28 119.983 129.605 115.321 131.202 113.589C132.718 111.949 133.682 110.003 130.307 109.722Z" fill="#E9F6FB"/>
<path fill-rule="evenodd" clip-rule="evenodd" d="M127.445 110.572C123.634 110.994 120.912 112.237 119.398 113.797C117.884 115.357 126.688 114.241 129.429 113.066C132.802 111.621 131.674 110.103 127.445 110.572Z" fill="#EFF8FC"/>
<path fill-rule="evenodd" clip-rule="evenodd" d="M162.022 110.314C162.022 110.314 165.346 110.075 166.898 112.202C168.224 114.02 168.938 117.365 167.641 121.474C166.221 125.974 164.255 126.04 163.841 125.958C163.427 125.876 163.887 121.358 162.299 119.746C160.711 118.134 158.638 115.98 158.638 115.98C158.638 115.98 160.201 111.302 162.022 110.314Z" fill="#DEF1F8"/>
<path fill-rule="evenodd" clip-rule="evenodd" d="M167.543 113.363C167.368 112.954 167.151 112.565 166.896 112.201C165.344 110.074 162.02 110.313 162.02 110.313C160.199 111.301 158.638 115.979 158.638 115.979C158.638 115.979 160.712 118.136 162.299 119.745C163.156 120.615 163.416 122.331 163.539 123.739C163.883 120.858 163.239 118.908 162.476 116.213C162.112 114.888 162.752 113.492 163.994 112.903C165.18 112.46 166.509 112.632 167.542 113.363H167.543Z" fill="#CCE4EA"/>
<path fill-rule="evenodd" clip-rule="evenodd" d="M166.316 114.578C164.899 113.74 164.303 116.047 164.801 118.578C165.074 120.506 165.048 122.466 164.721 124.386C164.677 125.086 165.955 124.124 166.867 121.486C167.779 118.848 168.038 115.596 166.316 114.578Z" fill="#E9F6FB"/>
<path fill-rule="evenodd" clip-rule="evenodd" d="M149.07 102.932C147.148 105.353 145.025 107.608 142.725 109.673C142.724 109.673 146.575 118.166 154.364 119.746C154.364 119.746 159.82 116.201 162.063 110.723C162.063 110.723 161.125 107.528 156.046 104.707C150.967 101.886 149.07 102.932 149.07 102.932Z" fill="#F8C6A3"/>
<path fill-rule="evenodd" clip-rule="evenodd" d="M156.041 104.706C150.963 101.885 149.07 102.931 149.07 102.931C149.07 102.931 148.77 103.342 148.084 104.146L147.652 104.646C147.652 104.646 148.842 108.546 153.928 111.413C155.934 112.57 158.135 113.35 160.422 113.713C161.068 112.776 161.617 111.775 162.06 110.726C162.06 110.726 161.119 107.527 156.041 104.706Z" fill="#F2A37C"/>
<path fill-rule="evenodd" clip-rule="evenodd" d="M156.042 104.706C150.964 101.885 149.071 102.931 149.071 102.931C149.071 102.931 148.885 103.181 148.516 103.631C152.579 108.1 157.881 109.631 162.06 110.722C162.06 110.722 161.121 107.527 156.042 104.706Z" fill="#DD8964"/>
<path fill-rule="evenodd" clip-rule="evenodd" d="M154.118 128.927C153.989 131.059 153.318 136.87 146.691 137.411C140.064 137.952 135.473 137.201 125.337 128.927C115.201 120.653 109.93 116.576 100.604 118.141C97.4945 118.896 86.9525 128.49 86.8185 130.924C86.6845 133.358 98.7114 144.303 99.9275 145.25C101.144 146.197 108.193 144.367 115.516 147.441C121.871 150.108 127.916 156.332 141.896 154.17C155.877 152.008 162.204 137.47 160.19 128.928C160.192 128.927 158.437 126.789 154.118 128.927Z" fill="#EA4D5F"/>
<path fill-rule="evenodd" clip-rule="evenodd" d="M119.392 124.197C117.48 122.706 115.453 121.368 113.33 120.197C107.049 127.144 99.3995 132.718 90.8623 136.569C93.4443 139.326 96.6383 142.326 98.4943 143.999C108.293 138.407 116.508 128.69 119.392 124.197Z" fill="#EFF8FC"/>
<path fill-rule="evenodd" clip-rule="evenodd" d="M128.721 153.585C131.503 154.358 134.387 154.698 137.273 154.595C138.861 148.807 139.241 142.753 138.389 136.811C136.881 136.355 135.425 135.744 134.044 134.986C133.73 141.514 131.908 147.88 128.721 153.585Z" fill="#EFF8FC"/>
<path fill-rule="evenodd" clip-rule="evenodd" d="M148.151 152.182C150.045 151.232 151.786 150.004 153.317 148.539C152.401 144.434 150.642 140.563 148.153 137.173C147.673 137.289 147.184 137.368 146.692 137.41C145.609 137.498 144.583 137.546 143.576 137.538C146.666 141.785 148.274 146.931 148.151 152.182Z" fill="#EFF8FC"/>
<path fill-rule="evenodd" clip-rule="evenodd" d="M120.182 149.826C125.251 143.602 127.808 136.152 128.97 131.742C127.838 130.916 126.634 129.985 125.337 128.926C124.895 128.564 124.472 128.226 124.048 127.876C120.696 136.297 114.732 142.676 110.985 146.087C112.538 146.38 114.057 146.833 115.516 147.439C117.112 148.152 118.67 148.949 120.182 149.826H120.182Z" fill="#EFF8FC"/>
<path fill-rule="evenodd" clip-rule="evenodd" d="M153.633 131.852C153.262 133.207 152.537 134.439 151.533 135.422C154.285 136.772 156.668 138.768 158.48 141.24C159.167 139.74 159.695 138.173 160.055 136.564C158.246 134.585 156.064 132.984 153.633 131.852Z" fill="#EFF8FC"/>
<g style="mix-blend-mode:multiply" opacity="0.2">
<path fill-rule="evenodd" clip-rule="evenodd" d="M154.119 128.926C154.078 131.124 153.324 133.25 151.972 134.983V134.983C153.379 133.694 154.381 132.023 154.856 130.174C154.856 130.174 159.039 131.506 160.192 128.923L157.121 128.004C156.072 128.123 155.054 128.435 154.119 128.926Z" fill="#242357"/>
</g>
<path fill-rule="evenodd" clip-rule="evenodd" d="M154.107 116.435C155.412 115.89 159.033 115.235 160.771 117.049C162.509 118.863 162.909 121.032 162.022 124.219C161.614 125.86 160.999 127.442 160.192 128.927C158.315 130.024 155.994 130.024 154.118 128.927C151.535 126.627 150.057 123.334 150.056 119.876C151.062 118.377 152.464 117.186 154.107 116.435Z" fill="#EA4D5F"/>
<path fill-rule="evenodd" clip-rule="evenodd" d="M160.584 128.173C158.051 124.753 154.357 122.374 150.194 121.483C150.342 122.516 150.613 123.527 151.002 124.495C153.817 125.638 156.346 127.386 158.41 129.614C159.041 129.498 159.645 129.264 160.19 128.926C160.19 128.926 160.346 128.669 160.584 128.173Z" fill="#EFF8FC"/>
<path fill-rule="evenodd" clip-rule="evenodd" d="M155.117 116.12C154.773 116.198 154.435 116.303 154.107 116.434C153.257 116.842 152.462 117.357 151.742 117.965C155.742 118.893 159.345 121.063 162.035 124.165C162.39 123.009 162.529 121.798 162.446 120.591C160.402 118.528 157.887 116.993 155.117 116.12Z" fill="#EFF8FC"/>
<g style="mix-blend-mode:multiply" opacity="0.2">
<path fill-rule="evenodd" clip-rule="evenodd" d="M153.122 124.146C152.452 120.276 153.835 116.731 155.746 115.994C155.185 116.082 154.635 116.23 154.107 116.435C152.464 117.186 151.062 118.377 150.056 119.876C150.057 123.333 151.534 126.626 154.116 128.926C155.035 129.419 156.055 129.693 157.097 129.727C155.337 129.057 153.732 127.669 153.122 124.146Z" fill="#242357"/>
</g>
<g style="mix-blend-mode:multiply" opacity="0.2">
<path fill-rule="evenodd" clip-rule="evenodd" d="M140.917 151.571C128.717 151.304 124.93 146.971 115.467 142.756C110.884 140.716 103.391 141.195 101.543 140.348C99.2434 139.293 89.8045 131.211 89.5094 130.354C88.9944 128.854 95.4035 121.474 95.4035 121.474C91.4135 124.714 86.9085 129.338 86.8214 130.923C86.6864 133.355 98.7144 144.302 99.9305 145.249C101.147 146.196 108.195 144.366 115.518 147.44C121.873 150.107 127.918 156.331 141.899 154.169C147.73 153.265 152.927 149.991 156.259 145.122C153.307 148.547 149.482 151.759 140.917 151.571Z" fill="#242357"/>
</g>
<path opacity="0.15" fill-rule="evenodd" clip-rule="evenodd" d="M109.684 120.003C107.046 119.201 104.27 118.952 101.531 119.272C99.9429 119.56 97.0909 122.212 95.3739 124.326C92.4009 127.984 99.7818 124.116 110.146 128.436C120.51 132.756 133.851 139.75 136.51 138.891C139.169 138.032 131.405 135.196 125.31 130.291C120.242 126.197 114.022 121.323 109.684 120.003Z" fill="white"/>
<path opacity="0.15" fill-rule="evenodd" clip-rule="evenodd" d="M160.192 117.454C158.417 116.289 157.673 119.425 157.852 122.795C158.031 126.165 158.421 128.809 159.389 128.395C160.357 127.981 161.933 123.81 161.817 121.485C161.701 119.16 161.079 118.038 160.192 117.454Z" fill="white"/>
<path fill-rule="evenodd" clip-rule="evenodd" d="M147.378 104.958C146.352 104.135 145.014 103.81 143.725 104.071C141.268 104.388 134.215 109.301 133.74 110.253C133.265 111.205 133.398 115.306 138.34 121.031C141.091 124.221 145.79 126.183 147.058 126.579C148.326 126.975 147.586 119.479 154.112 116.435C154.112 116.435 154.461 115.019 151.312 113.67C149.012 112.688 145.754 109.67 145.596 106.883L147.378 104.958Z" fill="#DEF1F8"/>
<path fill-rule="evenodd" clip-rule="evenodd" d="M145.587 106.883L147.378 104.958C146.352 104.135 145.014 103.81 143.725 104.071C141.268 104.388 134.215 109.301 133.74 110.253C133.265 111.205 133.398 115.306 138.34 121.031C135.589 117.098 135.949 111.345 138.122 109.673C140.295 108.001 143.473 105.441 144.564 108.226C145.655 111.011 150.064 112.992 150.064 112.993C147.978 111.656 145.718 109.199 145.587 106.883Z" fill="#CCE4EA"/>
<path fill-rule="evenodd" clip-rule="evenodd" d="M150.425 115.033C151.557 114.399 154.238 115.176 152.267 116.482C149.332 118.428 147.473 123.371 147.127 124.371C146.781 125.371 144.448 124.489 142.572 123.31C140.696 122.131 139.23 120.868 138.831 119.599C138.659 119.049 142.805 121.785 145.225 119.746C147.645 117.707 148.149 116.309 150.425 115.033Z" fill="#E9F6FB"/>
<path fill-rule="evenodd" clip-rule="evenodd" d="M134.064 91.0861C133.014 95.6551 134.743 98.4341 135.916 99.6071C137.089 100.78 139.498 101.521 140.3 98.9891C141.213 101.031 143.017 102.537 145.188 103.071C148.832 103.936 150.056 101.336 150.056 101.336L144.19 92.3221L134.064 91.0861Z" fill="#D65132"/>
<path fill-rule="evenodd" clip-rule="evenodd" d="M134.065 91.0861C133.782 92.2637 133.687 93.4786 133.782 94.686C135.988 96.7178 139.224 97.1655 141.899 95.8091C141.899 95.8091 143.58 101.334 148.571 102.779C149.198 102.454 149.715 101.952 150.057 101.334L144.191 92.3201L134.065 91.0861Z" fill="#BA422B"/>
<path fill-rule="evenodd" clip-rule="evenodd" d="M174.012 56.0571C181.941 56.0571 191.658 61.6411 193.892 70.3571C196.126 79.0731 195.455 86.3281 196.572 91.3571C197.272 94.498 197.791 98.3411 196.344 101.688C196.078 102.305 195.773 102.905 195.43 103.483C193.06 107.483 188.58 110.341 182.279 111.824C175.029 113.357 167.492 112.781 160.558 110.165C151.958 106.591 146.202 102.637 142.516 93.032C138.394 81.8179 142.449 69.2379 152.344 62.5421C163.402 55.0511 174.012 56.0571 174.012 56.0571Z" fill="#F8C6A3"/>
<path fill-rule="evenodd" clip-rule="evenodd" d="M144.326 83.371C144.494 84.895 145.886 86.339 148.582 85.344C151.278 84.349 156.308 79.714 157.282 67.438L144.326 83.371Z" fill="#F2A37C"/>
<path fill-rule="evenodd" clip-rule="evenodd" d="M174.012 56.057C170.622 55.9016 167.23 56.2949 163.967 57.222C160.74 59.222 157.852 60.922 157.852 60.922C161.599 68.98 169.726 73.937 174.874 75.047C180.021 76.157 186.188 76.147 188.474 72.995C190.619 70.036 187.333 66.987 187.333 66.987C189.175 68.231 191.304 68.9844 193.519 69.176C190.749 61.145 181.578 56.057 174.012 56.057Z" fill="#F2A37C"/>
<circle opacity="0.5" cx="158.529" cy="92.377" r="8.771" fill="#EE9681"/>
<path opacity="0.5" fill-rule="evenodd" clip-rule="evenodd" d="M188.494 92.615C188.494 97.1458 191.948 100.931 196.461 101.346C197.738 98.078 197.246 94.388 196.571 91.3459C196.127 88.9125 195.859 86.4501 195.771 83.978C191.567 84.7031 188.495 88.3489 188.494 92.615H188.494Z" fill="#EE9681"/>
<path fill-rule="evenodd" clip-rule="evenodd" d="M196.247 89.515C194.898 90.5555 193.243 91.1224 191.539 91.128C187.057 91.128 183.407 87.228 183.31 82.3979C183.216 82.3638 183.125 82.3223 183.037 82.274C182.807 82.14 182.583 81.996 182.36 81.853C182.36 81.97 182.343 82.085 182.343 82.203C182.343 82.261 182.351 82.318 182.352 82.375C182.034 82.2448 181.69 82.186 181.346 82.203C180.469 82.1819 179.601 82.3945 178.832 82.819C178.843 82.619 178.864 82.412 178.864 82.203V82.172C178.726 82.2999 178.597 82.4379 178.479 82.585C178.325 82.7983 178.111 82.9617 177.864 83.055C177.402 88.5704 172.675 92.7415 167.145 92.513C161.615 92.2845 157.248 87.7377 157.243 82.203C157.242 81.917 157.261 81.634 157.285 81.353C157.156 81.2933 157.034 81.2188 156.922 81.131L156.392 80.72C156.372 80.876 156.358 81.033 156.342 81.19L141.613 78.99L142.384 83.236L156.374 83.571C157.039 89.0352 161.549 93.2224 167.048 93.4794C172.546 93.7364 177.428 89.9884 178.599 84.61C179.463 84.1705 180.419 83.942 181.388 83.943C181.776 83.9344 182.161 83.9996 182.524 84.135C183.223 88.6102 187.013 91.9515 191.54 92.085C193.281 92.0812 194.98 91.5536 196.416 90.571L196.247 89.515Z" fill="#F2A37C"/>
<path fill-rule="evenodd" clip-rule="evenodd" d="M196.248 89.515C194.898 90.5552 193.244 91.122 191.54 91.1281C190.58 91.1254 189.63 90.9411 188.74 90.585C188.664 90.9023 188.606 91.2234 188.566 91.5471C189.518 91.9012 190.525 92.0834 191.541 92.085C193.281 92.0812 194.98 91.5536 196.417 90.571L196.303 89.864C196.292 89.786 196.277 89.7111 196.266 89.632L196.248 89.515Z" fill="#EB7C74"/>
<path opacity="0.3" fill-rule="evenodd" clip-rule="evenodd" d="M196.03 93.278C196.641 97.836 196.4 101.903 191.821 106.055C186.466 110.91 176.666 112.828 170.232 112.443C174.255 112.885 178.324 112.674 182.279 111.817C188.579 110.334 193.059 107.472 195.43 103.476C195.773 102.898 196.078 102.298 196.344 101.681C197.791 98.333 197.27 94.491 196.572 91.35C196.182 89.3119 195.94 87.2481 195.849 85.1749L195.694 85.064C195.939 86.454 195.417 88.72 196.03 93.278Z" fill="white"/>
<path fill-rule="evenodd" clip-rule="evenodd" d="M167.223 93.475C167.263 93.1583 167.286 92.8394 167.292 92.5201C162.277 92.3777 158.089 88.6545 157.36 83.691C157.045 83.7336 156.733 83.793 156.425 83.8691C157.234 89.2574 161.777 93.2986 167.223 93.475Z" fill="#EB7C74"/>
<path opacity="0.3" fill-rule="evenodd" clip-rule="evenodd" d="M157.473 84.907C157.473 85.907 156.202 86.7071 154.635 86.7071C153.068 86.7071 151.797 85.9001 151.797 84.907C151.797 83.9141 153.068 83.1071 154.635 83.1071C156.202 83.1071 157.473 83.912 157.473 84.907Z" fill="white"/>
<g style="mix-blend-mode:multiply" opacity="0.7">
<path fill-rule="evenodd" clip-rule="evenodd" d="M166.899 90.287C171.356 90.287 175.835 86.998 176.514 80.654C177.193 74.31 172.555 68.202 164.778 70.512C157.001 72.822 156.829 82.074 159.178 85.672C160.817 88.4053 163.715 90.1374 166.899 90.287Z" fill="url(#paint1_linear)"/>
</g>
<g style="mix-blend-mode:multiply" opacity="0.7">
<path fill-rule="evenodd" clip-rule="evenodd" d="M193.91 70.4481C192.104 69.8676 190.16 69.8757 188.359 70.471C181.219 72.5861 181.064 81.082 183.221 84.3831C184.725 86.8929 187.386 88.483 190.309 88.619C192.387 88.614 194.39 87.8432 195.936 86.454C195.603 82.03 195.48 76.6021 193.91 70.4481Z" fill="url(#paint2_linear)"/>
</g>
<path fill-rule="evenodd" clip-rule="evenodd" d="M141.613 78.113C143.061 79.5267 144.013 81.3713 144.327 83.371C144.621 85.4351 147.919 86.256 152.373 79.9761C158.529 71.298 157.852 60.923 157.852 60.923C161.884 65.1835 166.623 68.7149 171.859 71.3611C180.014 75.2911 184.828 74.2401 187.186 73.243C189.544 72.246 191.214 69.3961 189.052 65.8591C189.052 65.8591 193.08 69.0031 200.841 68.7081C208.602 68.413 211.746 64.6801 209.584 61.8311C207.422 58.9821 203.272 56.752 197.266 54.9401C197.266 54.9401 204.181 54.366 203.789 50.535C203.397 46.704 193.617 37.35 174.946 39.9351C153.967 42.8351 150.803 53.5601 150.803 53.5601C150.803 53.5601 147.917 51.8781 141.613 51.9271C137.162 51.962 134.232 53.746 133.937 54.752C133.642 55.7581 134.286 56.3391 136.317 57.116C137.887 57.6833 139.423 58.3407 140.917 59.085C137.253 60.2479 133.872 62.1601 130.988 64.7C125.978 69.022 126.041 72.9841 126.567 73.5411C127.554 74.587 130.134 72.124 133.867 71.632C133.867 71.632 131.282 77.455 131.967 82.4641C132.652 87.4731 141.613 78.113 141.613 78.113Z" fill="#E26644"/>
<path fill-rule="evenodd" clip-rule="evenodd" d="M163.117 53.832C160.717 54.246 159.009 56.239 162.302 57.416C165.595 58.593 176.017 62.969 180.934 66.954C186.148 71.181 190.259 72.004 188.975 67.937C187.15 63.1397 183.69 59.1414 179.204 56.648C174.317 53.9091 168.643 52.9159 163.117 53.832H163.117Z" fill="#EE7249"/>
<path fill-rule="evenodd" clip-rule="evenodd" d="M184.032 74.061C178.586 73.715 168.347 69.086 158.361 56.974C158.222 56.8065 157.99 56.7506 157.79 56.8367C157.591 56.9229 157.472 57.1303 157.499 57.346C157.623 58.301 157.763 59.562 157.851 60.924C161.884 65.1846 166.622 68.7163 171.858 71.363C177.336 74.002 181.3 74.387 184.032 74.061Z" fill="#D65132"/>
<path fill-rule="evenodd" clip-rule="evenodd" d="M163.478 42.811C152.724 47.059 150.803 53.559 150.803 53.559C150.803 53.559 147.917 51.877 141.613 51.926C137.162 51.96 134.232 53.7451 133.937 54.751C133.642 55.757 134.286 56.338 136.317 57.1151C137.887 57.6823 139.422 58.3397 140.917 59.084C137.253 60.2469 133.872 62.1591 130.988 64.699C125.978 69.0211 126.041 72.983 126.567 73.54C127.554 74.5861 130.134 72.123 133.867 71.631C133.867 71.631 131.282 77.454 131.967 82.4631C132.652 87.472 141.608 78.113 141.608 78.113C142.44 78.9507 143.12 79.9269 143.618 80.998C144.151 80.0181 144.546 79.053 144.181 78.498C142.299 75.6251 141.603 71.376 143.381 65.978C144.373 62.4173 146.887 59.4767 150.251 57.944C151.591 57.2985 153.064 56.9775 154.551 57.007C154.714 57.0111 154.868 56.9296 154.957 56.7921C155.017 56.6393 155.008 56.4683 154.934 56.3221C154.37 54.5923 154.357 52.7303 154.898 50.993C155.856 48.119 157.89 45.653 163.478 42.811Z" fill="#D65132"/>
<path fill-rule="evenodd" clip-rule="evenodd" d="M143.771 81.3391C144.038 81.9911 144.225 82.6736 144.326 83.3711C144.489 84.5081 145.606 85.2871 147.294 84.7011C146.769 84.8614 146.199 84.7213 145.809 84.3361C145.639 84.0239 145.572 83.6664 145.616 83.3141L149.417 83.4051H149.423C149.978 82.9294 150.493 82.4079 150.962 81.8461L147.572 81.6081L143.771 81.3391Z" fill="#D65132"/>
<path fill-rule="evenodd" clip-rule="evenodd" d="M200.84 68.708C205.921 68.516 209.008 66.847 209.94 64.9189C205.685 68.4189 195.749 65.8409 191.54 63.862C189.362 62.7832 187.246 61.5812 185.204 60.262C186.838 61.8611 188.145 63.7632 189.051 65.862C189.051 65.862 193.079 69.003 200.84 68.708Z" fill="#D65132"/>
<path fill-rule="evenodd" clip-rule="evenodd" d="M203.787 50.5341C203.603 49.5352 203.14 48.6089 202.45 47.863C204.723 51.163 200.725 52.0811 197.939 52.639C195.153 53.197 187.691 53.6151 187.691 53.6151C187.691 53.6151 195.01 54.522 197.265 54.939C197.266 54.939 204.18 54.366 203.787 50.5341Z" fill="#D65132"/>
<path fill-rule="evenodd" clip-rule="evenodd" d="M138.245 55.397C135.471 54.6871 135.483 53.3381 136.814 52.738C135.134 53.3491 134.104 54.1761 133.935 54.751C133.64 55.7581 134.284 56.3381 136.315 57.1151C137.885 57.6823 139.421 58.3397 140.915 59.084C142.292 58.6793 143.702 58.3972 145.128 58.241C142.922 57.092 140.619 56.1403 138.245 55.397Z" fill="#BA422B"/>
<path fill-rule="evenodd" clip-rule="evenodd" d="M129.981 70.4401C127.681 71.566 126.35 72.1931 126.536 71.085C126.221 71.8748 126.232 72.7575 126.567 73.5391C127.555 74.585 130.134 72.1221 133.868 71.6301C134.397 70.2311 135.141 68.9228 136.073 67.7521C133.993 68.5332 131.96 69.4306 129.981 70.4401H129.981Z" fill="#BA422B"/>
<path fill-rule="evenodd" clip-rule="evenodd" d="M189.341 41.63C181.833 39.494 166.191 40.7 159.601 46.795C157.449 48.785 163.156 47.5161 170.373 47.6221C177.16 47.8405 183.915 48.6395 190.565 50.0101C197.799 51.61 202.592 51.17 202.088 49.3201C201.584 47.47 196.631 43.7 189.341 41.63Z" fill="#EE7249"/>
<path fill-rule="evenodd" clip-rule="evenodd" d="M209.43 64.1521C210.038 62.6191 206.857 59.2971 202.125 57.4631C197.393 55.6291 190.566 54.3631 189.042 54.9401C187.35 55.5841 192.535 62.6821 200.198 64.9641C206.843 66.9421 208.913 65.4481 209.43 64.1521Z" fill="#EE7249"/>
<path fill-rule="evenodd" clip-rule="evenodd" d="M156.01 60.752C155.01 59.3961 151.264 60.9061 149.004 64.775C146.117 69.717 147.204 77.403 149.226 78.1121C151.248 78.821 154.135 74.043 155.184 70.012C156.233 65.981 156.887 61.942 156.01 60.752Z" fill="#EE7249"/>
<path fill-rule="evenodd" clip-rule="evenodd" d="M137.582 53.192C136.56 53.509 137.31 54.7141 139.068 54.747C140.843 54.781 147.601 54.4011 147.512 53.767C147.423 53.133 142.031 51.809 137.582 53.192Z" fill="#E26644"/>
<path fill-rule="evenodd" clip-rule="evenodd" d="M127.679 70.44C127.937 70.752 129.338 70.263 130.647 68.978C131.956 67.6931 135.752 63.335 136.074 62.778C136.396 62.221 133.393 63.256 130.647 65.861C127.901 68.466 127.403 70.107 127.679 70.44Z" fill="#E26644"/>
<path fill-rule="evenodd" clip-rule="evenodd" d="M195.677 56.313C198.508 57.013 205.101 58.278 208.9 62.951C207.192 61.4774 205.261 60.2836 203.18 59.414C200.737 58.2452 198.232 57.2101 195.677 56.313H195.677Z" fill="#F49A6E"/>
<path fill-rule="evenodd" clip-rule="evenodd" d="M168.639 42.8111C171.955 41.4841 184.662 40.7901 190.763 42.8111C197.973 45.1981 200.363 48.2811 200.363 48.2811C196.353 46.3477 192.086 45.0007 187.694 44.2811C189.915 44.3708 192.124 44.661 194.294 45.1481C194.294 45.148 190.194 42.5481 182.008 42.1481C177.541 41.8618 173.056 42.0842 168.639 42.8111H168.639Z" fill="#F49A6E"/>
<path fill-rule="evenodd" clip-rule="evenodd" d="M178.231 56.795C182.168 58.303 187.062 63.59 188.29 67.2321C186.996 65.1403 185.47 63.2014 183.741 61.4521C182.025 59.7634 180.183 58.2067 178.231 56.7951V56.795Z" fill="#F49A6E"/>
<path fill-rule="evenodd" clip-rule="evenodd" d="M155.657 62.408C155.709 64.316 154.921 72.1379 150.802 77.071C150.358 75.2175 150.358 73.2855 150.802 71.432C150.868 72.6114 151.026 73.7839 151.273 74.939C151.272 74.939 154.162 71.33 155.657 62.408Z" fill="#F49A6E"/>
<g style="mix-blend-mode:multiply" opacity="0.5">
<path fill-rule="evenodd" clip-rule="evenodd" d="M170.319 69.427C170.189 68.209 167.606 67.037 163.925 69.104C160.244 71.171 158.951 74.404 159.21 75.369C159.469 76.334 162.81 74.929 165.152 74.0129C169.092 72.469 170.705 73.0439 170.319 69.427Z" fill="#F2A37C"/>
</g>
<g style="mix-blend-mode:multiply" opacity="0.5">
<path fill-rule="evenodd" clip-rule="evenodd" d="M195.007 76.012C194.844 74.8831 194.642 73.723 194.392 72.532C193.561 71.3577 192.468 70.3927 191.201 69.713C187.518 67.645 186.138 69.435 186.122 70.661C186.086 73.432 188.522 73.8231 190.822 74.613C192.733 75.268 194.318 76.176 195.007 76.012Z" fill="#F2A37C"/>
</g>
<path fill-rule="evenodd" clip-rule="evenodd" d="M170.762 67.9741C170.595 66.48 167.605 65.7071 163.923 67.774C160.241 69.8411 158.949 73.0741 159.208 74.04C159.467 75.006 162.808 73.5991 165.15 72.683C169.092 71.1401 171.109 71.0821 170.762 67.9741Z" fill="#D65132"/>
<path fill-rule="evenodd" clip-rule="evenodd" d="M166.548 70.4401C163.148 71.5461 161.248 72.0031 161.406 70.764C161.564 69.5251 163.395 68.0531 163.923 67.774C160.241 69.842 158.949 73.0741 159.208 74.04C159.467 75.006 162.808 73.5991 165.15 72.683C169.092 71.1401 171.109 71.0831 170.762 67.9741C170.587 68.7621 169.95 69.334 166.548 70.4401Z" fill="#BA422B"/>
<path fill-rule="evenodd" clip-rule="evenodd" d="M186.127 69.3301C186.142 68.1041 187.527 66.3151 191.205 68.3821C194.883 70.4492 195.619 73.3972 195.361 74.3661C195.102 75.3351 193.204 74.0972 190.826 73.2822C188.518 72.4932 186.086 72.1022 186.127 69.3301Z" fill="#D65132"/>
<path fill-rule="evenodd" clip-rule="evenodd" d="M193.945 73.2651C192.918 72.6442 190.09 71.5651 188.362 70.4722C186.654 69.3901 187.154 67.7341 188.519 67.4531C187.945 67.3386 187.35 67.4802 186.888 67.8411C186.427 68.202 186.146 68.7462 186.12 69.3312C186.083 72.1022 188.519 72.4941 190.819 73.2831C193.196 74.0981 195.094 75.3351 195.353 74.3671C195.447 73.6949 195.339 73.0099 195.043 72.3992C195.342 73.0251 194.971 73.8851 193.945 73.2651Z" fill="#BA422B"/>
<path fill-rule="evenodd" clip-rule="evenodd" d="M191.54 91.2081C186.469 91.2081 182.34 86.774 182.34 81.324C182.34 75.874 186.465 71.4401 191.54 71.4401C196.615 71.4401 200.74 75.874 200.74 81.324C200.74 86.774 196.611 91.2081 191.54 91.2081ZM191.54 72.3981C186.998 72.3981 183.301 76.3981 183.301 81.324C183.301 86.2501 187.001 90.2501 191.54 90.2501C196.079 90.2501 199.779 86.2501 199.779 81.324C199.779 76.3981 196.083 72.3981 191.54 72.3981Z" fill="#19313A"/>
<ellipse cx="166.899" cy="83.1694" rx="7.11961" ry="7.1196" fill="white"/>
<path opacity="0.2" fill-rule="evenodd" clip-rule="evenodd" d="M164.002 87.4801C161.469 84.7859 161.101 80.7116 163.11 77.6071L162.858 77.3071C160.382 79.0175 159.25 82.1 160.03 85.0062C160.81 87.9123 163.333 90.0138 166.333 90.2548C169.332 90.4958 172.159 88.8244 173.393 86.0801C171.378 88.7531 166.166 89.4441 164.002 87.4801Z" fill="#BAC4CA"/>
<path fill-rule="evenodd" clip-rule="evenodd" d="M159.877 84.3371C159.877 84.3371 160.107 79.2931 164.162 77.6311C168.728 75.7601 172.662 78.2111 173.471 80.4501C173.551 79.8148 173.39 79.1724 173.02 78.6501C171.848 76.8501 168.963 74.6311 164.397 76.1561C160.892 77.1703 158.87 80.8303 159.877 84.3371Z" fill="#19313A"/>
<path fill-rule="evenodd" clip-rule="evenodd" d="M174.017 83.1691C174.018 82.4745 173.917 81.7842 173.717 81.1196C173.396 80.0309 172.552 79.1751 171.467 78.8401C170.099 78.3943 168.598 78.6979 167.511 79.6401C165.397 81.6664 164.911 84.8619 166.327 87.4251C166.836 88.1595 167.553 88.7251 168.386 89.0491C169.611 89.4758 170.972 89.162 171.886 88.2421C173.251 86.9075 174.02 85.0782 174.017 83.1691Z" fill="#19313A"/>
<path fill-rule="evenodd" clip-rule="evenodd" d="M167.542 88.6031C167.805 88.784 168.087 88.934 168.384 89.0502C169.609 89.4769 170.97 89.1631 171.884 88.2432C172.513 87.6232 173.022 86.8918 173.384 86.0862C171.903 87.7461 169.765 88.6673 167.542 88.6031Z" fill="#002030"/>
<path fill-rule="evenodd" clip-rule="evenodd" d="M172.641 79.9761C172.185 79.5083 171.498 79.3476 170.881 79.5642C170.264 79.7809 169.829 80.3355 169.765 80.9861C169.497 82.8572 170.77 84.9081 172.32 84.9081C173.344 84.9081 173.82 83.9341 173.68 82.4752C173.651 81.5433 173.281 80.6544 172.641 79.9761Z" fill="white"/>
<path fill-rule="evenodd" clip-rule="evenodd" d="M183.168 82.4921C183.131 82.1948 182.985 81.922 182.758 81.7271C182.351 81.4267 181.85 81.2845 181.347 81.3271C180.415 81.2991 179.494 81.5377 178.694 82.0151C178.354 82.2172 178.124 82.562 178.069 82.9531L177.894 84.1651C178.913 83.439 180.137 83.054 181.389 83.0651C183.046 83.0651 183.397 83.9781 183.397 83.9781L183.168 82.4921Z" fill="#19313A"/>
<path fill-rule="evenodd" clip-rule="evenodd" d="M181.347 81.324C180.415 81.2955 179.494 81.5343 178.693 82.0121C178.354 82.2142 178.125 82.559 178.069 82.9501L177.894 84.162C178.913 83.436 180.137 83.051 181.389 83.0621C183.046 83.0621 183.397 83.9751 183.397 83.9751C182.807 82.1521 180.091 82.808 179.983 82.3571C179.875 81.9061 180.316 81.412 181.347 81.324Z" fill="#002030"/>
<path fill-rule="evenodd" clip-rule="evenodd" d="M157.029 80.413L141.612 78.113L142.383 82.3591L156.761 82.7031C156.761 82.7031 156.986 81.3441 157.029 80.413Z" fill="#19313A"/>
<path fill-rule="evenodd" clip-rule="evenodd" d="M156.838 82.201L145.088 80.6121C144.948 79.8491 144.64 79.1266 144.188 78.496L141.615 78.113L142.386 82.3591L156.764 82.7031C156.764 82.7031 156.795 82.501 156.838 82.201Z" fill="#002030"/>
<path fill-rule="evenodd" clip-rule="evenodd" d="M180.194 85.4731C179.432 85.834 178.71 88.3301 179.362 90.4731C179.827 92.1251 181.331 93.2683 183.048 93.2731C184.802 93.3331 185.756 92.313 185.71 91.024C185.673 89.8971 184.319 89.876 183.048 88.3241C181.87 86.8951 181.621 84.798 180.194 85.4731Z" fill="#EE9681"/>
<path fill-rule="evenodd" clip-rule="evenodd" d="M182.582 92.1351C180.316 91.7172 179.135 89.0521 179.222 87.4832C179.037 88.4766 179.085 89.4995 179.363 90.4711C179.827 92.1232 181.332 93.2664 183.048 93.2712C184.802 93.3301 185.756 92.3112 185.711 91.0222C185.414 91.9052 184.456 92.4811 182.582 92.1351Z" fill="#EB7C74"/>
<path fill-rule="evenodd" clip-rule="evenodd" d="M184.736 90.9771C184.69 90.9757 184.643 90.9711 184.597 90.9631C184.456 90.9379 184.32 90.8871 184.197 90.813C183.862 90.6102 183.61 90.2943 183.486 89.9221C183.435 89.7801 183.299 89.3311 183.607 89.4081C183.672 89.4288 183.73 89.4629 183.78 89.5081C183.925 89.6241 184.08 89.7281 184.221 89.8381C184.482 90.0381 184.812 90.1511 185.058 90.3551C185.15 90.4244 185.204 90.5316 185.206 90.6461C185.192 90.7775 185.105 90.8896 184.981 90.9361C184.904 90.9674 184.82 90.9814 184.736 90.9771Z" fill="#F8C6A3"/>
<path fill-rule="evenodd" clip-rule="evenodd" d="M167.573 92.615C161.337 92.615 156.282 87.5599 156.282 81.324C156.282 75.0882 161.337 70.033 167.573 70.0331C173.809 70.0331 178.864 75.0882 178.864 81.324C178.859 87.5591 173.806 92.6108 167.572 92.615H167.573ZM167.573 70.9901C163.393 70.9897 159.625 73.5072 158.025 77.3687C156.425 81.2302 157.309 85.6752 160.265 88.6309C163.22 91.5867 167.665 92.4709 171.527 90.8715C175.388 89.2721 177.906 85.5038 177.906 81.324C177.9 75.6188 173.277 70.9962 167.572 70.9901H167.573Z" fill="#19313A"/>
<path fill-rule="evenodd" clip-rule="evenodd" d="M177.1 99.494C174.281 99.106 171.563 98.1817 169.092 96.7709C166.718 95.517 164.902 95.335 164.482 97.171C163.873 99.8199 166.47 106.571 175.182 107.88C180.758 108.718 184.808 107.092 187.063 105.263C188.206 104.375 189.062 103.169 189.524 101.797C190.024 100.197 189.396 98.2839 185.467 99.043C182.717 99.6206 179.896 99.7727 177.1 99.494Z" fill="#C9434D"/>
<path fill-rule="evenodd" clip-rule="evenodd" d="M175.9 99.329C173.518 98.8131 171.224 97.9514 169.092 96.771C166.718 95.517 164.902 95.335 164.482 97.171C163.989 99.317 165.602 104.155 170.868 106.611C173.888 105.526 175.903 102.663 175.906 99.453C175.906 99.4089 175.9 99.37 175.9 99.329Z" fill="#7C1423"/>
<path fill-rule="evenodd" clip-rule="evenodd" d="M184.033 99.293C181.74 99.6555 179.411 99.7227 177.102 99.493C174.532 99.1569 172.046 98.3508 169.769 97.115H169.769C169.82 98.0813 170.06 99.0282 170.476 99.902C171.14 100.883 174.319 102.102 176.112 102.357C179.612 102.857 182.363 101.964 182.667 101.626C183.183 100.886 183.64 100.106 184.033 99.293Z" fill="white"/>
<path opacity="0.2" fill-rule="evenodd" clip-rule="evenodd" d="M174.84 99.814C177.768 100.509 180.816 100.519 183.749 99.845C183.916 99.527 184.033 99.293 184.033 99.293C181.74 99.6555 179.411 99.7227 177.102 99.493C174.532 99.1569 172.046 98.3508 169.769 97.115H169.769C169.82 98.0813 170.06 99.0282 170.476 99.902C170.934 100.579 172.591 101.368 174.162 101.877C172.898 101.432 171.867 100.494 171.306 99.277C171.152 98.55 172.034 99.092 174.84 99.814Z" fill="#BAC4CA"/>
<path fill-rule="evenodd" clip-rule="evenodd" d="M180.727 107.908C179.974 106.279 175.51 102.108 166.527 103.246C168.716 105.841 171.817 107.497 175.19 107.875C177.024 108.165 178.891 108.176 180.727 107.908Z" fill="#EC6469"/>
<path fill-rule="evenodd" clip-rule="evenodd" d="M179.459 108.052C179.451 108.052 174.407 107.741 171.99 106.132C169.59 104.532 170.156 103.091 172.252 103.246C170.351 102.99 168.425 102.99 166.523 103.246C168.712 105.841 171.813 107.497 175.186 107.875C176.6 108.094 178.033 108.153 179.459 108.052Z" fill="#DB545B"/>
<path opacity="0.2" fill-rule="evenodd" clip-rule="evenodd" d="M176.623 104.975C175.304 104.237 173.832 103.816 172.322 103.748C170.238 103.959 174.413 105.634 176.229 106.294C178.557 107.141 178.829 106.12 176.623 104.975Z" fill="white"/>
<path opacity="0.2" fill-rule="evenodd" clip-rule="evenodd" d="M179.341 106.775C178.988 106.537 178.517 106.548 178.517 106.836C178.517 107.05 178.789 107.406 179.341 107.577C179.893 107.748 179.91 107.157 179.341 106.775Z" fill="white"/>
<path fill-rule="evenodd" clip-rule="evenodd" d="M194.767 86.6071C196.32 84.9071 196.206 79.1361 194.014 77.4331C191.356 75.3975 187.563 75.8363 185.44 78.4249C183.317 81.0134 183.629 84.819 186.146 87.0267C188.662 89.2345 192.476 89.0488 194.767 86.6071Z" fill="white"/>
<path opacity="0.2" fill-rule="evenodd" clip-rule="evenodd" d="M194.766 86.607C195.271 85.9445 195.585 85.1575 195.676 84.33C194.376 86.851 191.276 88.286 188.565 86.483C185.208 84.248 185.64 79.071 186.994 77.083C184.947 78.3507 183.819 80.689 184.101 83.0802C184.383 85.4714 186.024 87.4831 188.31 88.2398C190.596 88.9966 193.113 88.3615 194.766 86.611V86.607Z" fill="#BAC4CA"/>
<path fill-rule="evenodd" clip-rule="evenodd" d="M184.177 83.6541C184.177 83.6541 183.991 79.0021 187.731 77.4691C189.741 76.5771 192.05 76.6601 193.99 77.694C194.473 77.9752 194.859 78.3973 195.096 78.9041C195.045 78.0325 194.617 77.2263 193.924 76.6951C192.619 75.717 190.701 75.1591 187.948 76.1041C182.425 78.007 184.177 83.6541 184.177 83.6541Z" fill="#19313A"/>
<path fill-rule="evenodd" clip-rule="evenodd" d="M194.145 78.5681C192.975 78.2197 191.708 78.4885 190.779 79.282C188.936 81.0496 188.512 83.8369 189.748 86.072C190.565 87.3032 192.041 87.9234 193.491 87.645C194.622 87.2224 195.454 86.2455 195.691 85.062C196.238 83.3086 196.135 81.4171 195.402 79.733C195.166 79.1848 194.71 78.7616 194.145 78.5681Z" fill="#19313A"/>
<path fill-rule="evenodd" clip-rule="evenodd" d="M195.692 85.0631C195.827 84.6089 195.92 84.1432 195.97 83.6721C195.252 85.7703 193.313 87.207 191.097 87.2821C191.827 87.6807 192.674 87.8096 193.49 87.6461C194.621 87.2241 195.454 86.2471 195.692 85.0631Z" fill="#002030"/>
<path fill-rule="evenodd" clip-rule="evenodd" d="M194.759 79.376C194.36 78.9661 193.759 78.8254 193.219 79.0153C192.679 79.2053 192.298 79.6913 192.243 80.261C192.008 81.8981 193.123 83.691 194.478 83.691C195.378 83.691 195.792 82.84 195.667 81.5621C195.642 80.747 195.319 79.9695 194.759 79.376Z" fill="white"/>
<path fill-rule="evenodd" clip-rule="evenodd" d="M141.61 78.1141C139.696 76.9531 135.01 76.1541 131.948 79.1551C128.886 82.1561 129.108 90.407 134.669 93.1881C137.722 94.8651 141.488 94.5225 144.188 92.3221C144.876 86.4911 144.901 80.2631 141.61 78.1141Z" fill="#F8C6A3"/>
<path fill-rule="evenodd" clip-rule="evenodd" d="M135.51 87.8421C135.51 86.7339 136.177 85.7357 137.2 85.3123C138.223 84.8887 139.4 85.1232 140.183 85.9064C140.965 86.6896 141.199 87.8672 140.775 88.8899C140.351 89.9126 139.352 90.5789 138.245 90.5781C136.734 90.577 135.51 89.3525 135.51 87.8421Z" fill="#DD8964"/>
<path fill-rule="evenodd" clip-rule="evenodd" d="M138.246 90.5731C140.829 90.5531 142.811 87.7271 142.392 84.3321C141.898 80.3321 138.638 79.6271 136.627 79.7391C134.522 79.824 132.828 81.4981 132.718 83.6021C133.497 81.8691 135.46 81.0056 137.264 81.6021C140.615 82.4961 139.532 87.5021 138.414 87.8391C137.296 88.1761 138.246 90.5731 138.246 90.5731Z" fill="#DD8964"/>
<path fill-rule="evenodd" clip-rule="evenodd" d="M138.053 77.738C136.093 77.4001 134.087 77.979 132.609 79.309C130.639 80.968 130.209 83.574 130.53 85.971C130.538 86.028 130.679 86.12 130.69 86.043C131.039 83.45 131.575 80.807 133.935 79.243C135.191 78.4505 136.616 77.966 138.095 77.829C138.156 77.817 138.08 77.744 138.053 77.738Z" fill="#FDDEBC"/>
<path fill-rule="evenodd" clip-rule="evenodd" d="M145.146 93.2011C144.78 92.2382 144.372 90.5781 144.372 90.5781C143.508 91.3612 142.503 91.9721 141.41 92.3781C138.433 93.4749 135.117 93.1392 132.42 91.4681C133.058 92.1741 133.821 92.7568 134.67 93.1871C137.144 94.5332 140.12 94.5866 142.641 93.3301C146.331 102.707 152.052 106.623 160.557 110.158C162.775 111.047 165.085 111.687 167.444 112.067C157.175 110.212 148.676 103.021 145.146 93.2011Z" fill="#F2A37C"/>
<path fill-rule="evenodd" clip-rule="evenodd" d="M173.626 109.026C172.033 108.623 170.506 107.994 169.092 107.157C169.092 107.157 170.047 109.057 173.471 109.843C177.293 110.721 179.226 109.496 179.226 109.496C177.346 109.615 175.459 109.457 173.626 109.026Z" fill="#F2A37C"/>
<path fill-rule="evenodd" clip-rule="evenodd" d="M101.544 172.389C101.488 176.14 100.198 186.223 107.937 194.079C115.676 201.935 130.57 198.886 133.558 198.179C135.818 197.755 138.124 197.636 140.415 197.827C142.009 197.795 146.16 196.772 146.864 193.607C146.864 193.607 142.408 195.951 139.125 190.792C135.529 184.717 135.631 177.142 139.389 171.166C142.873 165.816 150.334 164.657 152.372 164.412C152.372 164.412 151.866 161.984 148.536 161.563C146.719 161.332 142.036 163.509 135.611 165.375C125.998 168.171 113.542 172.607 101.544 172.389Z" fill="#4477BB"/>
<path fill-rule="evenodd" clip-rule="evenodd" d="M140.966 163.975C137.514 165.461 133.493 171.268 132.573 176.575C133.865 172.946 135.943 169.647 138.657 166.914C140.586 164.968 144.098 163.322 144.485 162.995C144.896 162.651 143.276 162.98 140.966 163.975Z" fill="#71ABDE"/>
<path fill-rule="evenodd" clip-rule="evenodd" d="M133.559 198.183C135.819 197.759 138.125 197.64 140.416 197.831C142.01 197.799 146.161 196.776 146.865 193.611C144.725 194.603 142.194 194.16 140.518 192.5L138.835 193.278C138.835 193.278 137.648 195.723 134.942 192.694C131.236 188.544 131.955 179.556 131.955 179.556C130.104 190.249 134.722 194.522 134.139 194.831C133.556 195.14 123.32 197.77 116.229 193.362C109.138 188.954 110.774 175.783 114.639 174.062C118.559 172.319 123.039 170.9 129.806 167.118C121.25 169.698 111.249 172.565 101.545 172.389C101.489 176.14 100.199 186.223 107.938 194.079C115.677 201.935 130.572 198.886 133.559 198.183Z" fill="#3E65AE"/>
<path fill-rule="evenodd" clip-rule="evenodd" d="M141.692 166.639C144.608 165.556 147.656 164.875 150.755 164.614C149.584 163.228 145.923 163.771 141.692 166.639Z" fill="#295296"/>
<path fill-rule="evenodd" clip-rule="evenodd" d="M152.373 164.416C155.279 163.977 166.42 163.524 172.273 166.872C178.406 170.383 179.181 174.972 178.703 179.988C178.226 185.004 146.868 193.611 146.868 193.611C146.868 193.611 145.859 195.728 142.169 194.978C138.478 194.228 135.819 190.813 134.998 183.848C134.178 176.883 137.456 169.509 141.691 166.641C144.402 164.976 147.591 164.263 150.753 164.616L152.373 164.416Z" fill="#F8C6A3"/>
<path fill-rule="evenodd" clip-rule="evenodd" d="M156.268 178.635C156.268 178.635 152.207 179.554 146.14 184.725C141.169 188.962 138.484 189.747 136.708 184.972C134.932 180.197 136.545 172.701 139.497 168.625C136.03 172.897 134.41 178.376 134.997 183.847C135.817 190.812 138.48 194.226 142.167 194.977C145.854 195.728 146.867 193.61 146.867 193.61C146.867 193.61 150.72 182.343 156.268 178.635Z" fill="#F2A37C"/>
<path fill-rule="evenodd" clip-rule="evenodd" d="M146.864 193.611C145.347 194.223 143.772 194.681 142.164 194.978C145.855 195.728 146.864 193.611 146.864 193.611Z" fill="#295296"/>
<path fill-rule="evenodd" clip-rule="evenodd" d="M178.699 179.985C178.241 186.412 171.461 210.351 169.979 216.528C168.687 221.913 167.88 225.172 167.88 225.172C159.628 231.704 151.438 235.123 143.312 235.256C143.312 235.256 143.713 221.891 143.713 214.371C143.713 206.851 143.977 200.322 146.55 192.803C147.331 190.519 151.085 181.856 156.272 178.632C163.182 174.339 169.998 178.41 178.699 179.985Z" fill="#F8C6A3"/>
<path fill-rule="evenodd" clip-rule="evenodd" d="M156.557 214.827C150.568 215.632 149.016 214.827 147.745 208.396C146.474 201.965 148.026 189.34 149.905 185.828C148.57 188.044 147.446 190.381 146.546 192.807C143.974 200.326 143.709 206.856 143.709 214.375C143.709 218.433 143.594 224.19 143.488 228.634L149.088 227.856L167.594 223.174C167.594 223.174 168.032 222.798 168.608 222.224C168.959 220.783 169.426 218.857 169.983 216.532C170.021 216.372 170.066 216.189 170.111 216.001C167.348 214.537 162.002 214.095 156.557 214.827Z" fill="#F2A37C"/>
<path fill-rule="evenodd" clip-rule="evenodd" d="M173 182.876C171.387 182.386 169.933 181.478 168.785 180.244C167.585 178.858 167.071 177.029 166.406 177.397C165.077 178.134 165.741 183.457 168.476 185.249C170.177 186.541 172.455 186.781 174.387 185.871C175.348 185.385 176.529 183.836 173 182.876Z" fill="#F2A37C"/>
<path opacity="0.3" fill-rule="evenodd" clip-rule="evenodd" d="M178.699 179.988C179.177 174.969 178.399 170.382 172.269 166.872C168.991 164.996 164.052 164.314 159.832 164.154C164.48 164.554 174.539 167.536 176.699 174.119C177.248 175.788 177.199 178.558 176.768 182.776C175.758 192.705 172.601 206.476 172.598 206.487C175.11 196.99 178.385 184.387 178.699 179.988Z" fill="white"/>
<path fill-rule="evenodd" clip-rule="evenodd" d="M167.885 225.174C168.312 223.39 168.967 221.668 169.833 220.051C170.352 219.36 170.352 218.151 167.154 217.459C163.956 216.767 155.396 217.199 149.089 219.274C142.782 221.349 141.571 223.596 141.917 224.546C142.263 225.496 143.77 231.193 143.317 235.259C151.42 235.156 159.612 231.684 167.885 225.174Z" fill="#EFF8FC"/>
<path fill-rule="evenodd" clip-rule="evenodd" d="M169.268 221.124V221.117C169.268 221.117 162.931 219.681 154.013 221.953C144.852 224.286 142.561 226.985 142.561 226.985C142.76 227.894 142.971 228.971 143.129 230.113C144.252 229.222 147.265 227.313 154.013 225.591C158.585 224.376 163.344 224.025 168.046 224.556C168.379 223.387 168.787 222.241 169.268 221.124V221.124Z" fill="#4477BB"/>
<g style="mix-blend-mode:multiply" opacity="0.2">
<path fill-rule="evenodd" clip-rule="evenodd" d="M154.33 233.091C153.699 232.842 152.995 232.855 152.373 233.126C148.479 234.418 147.61 231.484 147.592 229.5C147.626 227.411 147.334 225.328 146.726 223.329C146.409 222.627 146.394 221.825 146.684 221.112C146.975 220.398 147.546 219.835 148.264 219.555C142.67 221.548 141.581 223.638 141.912 224.546C142.258 225.497 143.765 231.193 143.312 235.259C147.083 235.184 150.812 234.45 154.33 233.091Z" fill="#242357"/>
</g>
<path fill-rule="evenodd" clip-rule="evenodd" d="M150.639 232.046C148.839 233.32 144.7 233.446 143.232 230.923C143.232 230.923 142.573 231.317 141.86 233.377C141.147 235.437 140.293 240.289 141.86 242.905C144.867 241.371 148.057 240.226 151.353 239.497C156.584 238.388 163.797 234.504 166.253 232.84C168.709 231.176 179.014 225.23 186.701 228.956C186.701 228.956 184.086 224.835 177.033 224.914C169.98 224.993 167.882 225.176 167.882 225.176C167.882 225.176 158.556 225.541 154.206 227.53C151.432 228.796 152.541 230.698 150.639 232.046Z" fill="#4477BB"/>
<g style="mix-blend-mode:multiply" opacity="0.2">
<path fill-rule="evenodd" clip-rule="evenodd" d="M166.252 232.838C168.102 231.627 170.063 230.595 172.11 229.758C171.638 227.621 170.916 225.507 169.871 225.071C169.514 225.084 169.21 225.098 168.958 225.11H168.947C165.988 226.561 165.797 230.838 165.797 230.838C164.137 231.1 158.797 234.399 156.844 235.255C153.017 236.93 150.868 236.699 149.966 236.047C148.697 235.131 148.779 232.787 148.779 232.787C146.807 233.187 144.304 232.766 143.229 230.92C143.229 230.92 142.57 231.314 141.857 233.374C141.144 235.434 140.29 240.286 141.857 242.902C144.864 241.368 148.054 240.223 151.35 239.494C156.583 238.386 163.795 234.502 166.252 232.838Z" fill="#242357"/>
</g>
<path fill-rule="evenodd" clip-rule="evenodd" d="M186.691 228.945C179.413 225.43 169.798 230.563 166.714 232.536C166.858 232.436 165.622 228.246 168.945 225.114C172.268 221.982 184.791 222.222 186.691 228.945Z" fill="#EFF8FC"/>
<path fill-rule="evenodd" clip-rule="evenodd" d="M186.691 228.942C183.591 223.273 174.778 225.442 172.453 226.355C170.128 227.268 167.09 227.955 167.486 227.016C166.694 228.74 166.426 230.658 166.714 232.533C169.8 230.563 179.415 225.43 186.691 228.942Z" fill="#A9CBD3"/>
<path fill-rule="evenodd" clip-rule="evenodd" d="M186.693 228.946C185.441 227.535 183.699 226.654 181.82 226.48C177.154 226.015 172.474 227.21 168.603 229.857C164.715 232.399 160.603 234.582 156.319 236.378C152.302 238.124 143.919 238.765 141.375 241.95C141.375 241.95 140.695 243.073 140.889 246.077C140.84 248.641 142.485 250.932 144.93 251.704C147.704 252.813 155.789 253.367 165.854 250.04C175.919 246.713 182.554 246.229 186.698 240.291C190.301 235.126 188.03 230.498 186.693 228.946Z" fill="#DEF1F8"/>
<mask id="mask0" mask-type="alpha" maskUnits="userSpaceOnUse" x="140" y="226" width="49" height="27">
<path fill-rule="evenodd" clip-rule="evenodd" d="M186.693 228.946C185.441 227.535 183.699 226.654 181.82 226.48C177.154 226.015 172.474 227.21 168.603 229.857C164.715 232.399 160.603 234.582 156.319 236.378C152.302 238.124 143.919 238.765 141.375 241.95C141.375 241.95 140.695 243.073 140.889 246.077C140.84 248.641 142.485 250.932 144.93 251.704C147.704 252.813 155.789 253.367 165.854 250.04C175.919 246.713 182.554 246.229 186.698 240.291C190.301 235.126 188.03 230.498 186.693 228.946Z" fill="white"/>
</mask>
<g mask="url(#mask0)">
<path d="M189.601 232.537C187.88 229.155 182.401 226.359 174.782 228.792C167.005 231.275 165.646 234.605 157.363 237.737C149.08 240.869 141.905 239.875 139.735 246.937" stroke="#4477BB"/>
</g>
<path fill-rule="evenodd" clip-rule="evenodd" d="M181.588 229.506C176.19 229.428 170.919 231.149 166.606 234.397C162.834 237.132 158.6 239.165 154.106 240.397C150.197 241.519 148.077 241.386 144.235 243.14C142.202 243.885 140.961 245.946 141.253 248.092C141.83 249.815 143.197 251.159 144.93 251.706C147.704 252.815 155.789 253.369 165.854 250.042C175.919 246.715 182.554 246.231 186.698 240.293C188.316 238.144 188.953 235.414 188.453 232.771C187.637 231.129 186.525 229.622 181.588 229.506Z" fill="#E8914F"/>
<path fill-rule="evenodd" clip-rule="evenodd" d="M151.278 251.124C149.311 251.221 147.343 250.965 145.466 250.367C144.169 249.984 143.127 249.013 142.654 247.745C142.546 246.278 143.441 244.923 144.832 244.445C146.683 243.614 148.632 243.024 150.632 242.688C151.746 242.462 153.008 242.205 154.499 241.777C159.157 240.504 163.546 238.397 167.452 235.558C171.374 232.602 176.141 230.983 181.052 230.939C181.216 230.939 181.381 230.939 181.545 230.945C185.745 231.045 186.531 232.175 187.074 233.234C187.426 235.438 186.862 237.691 185.514 239.47C182.623 243.615 178.358 244.843 171.902 246.703C169.958 247.262 167.754 247.897 165.402 248.677C160.853 250.237 156.085 251.064 151.276 251.128L151.278 251.124Z" fill="#D1783B"/>
<mask id="mask1" mask-type="alpha" maskUnits="userSpaceOnUse" x="142" y="230" width="46" height="22">
<path fill-rule="evenodd" clip-rule="evenodd" d="M151.278 251.124C149.311 251.221 147.343 250.965 145.466 250.367C144.169 249.984 143.127 249.013 142.654 247.745C142.546 246.278 143.441 244.923 144.832 244.445C146.683 243.614 148.632 243.024 150.632 242.688C151.746 242.462 153.008 242.205 154.499 241.777C159.157 240.504 163.546 238.397 167.452 235.558C171.374 232.602 176.141 230.983 181.052 230.939C181.216 230.939 181.381 230.939 181.545 230.945C185.745 231.045 186.531 232.175 187.074 233.234C187.426 235.438 186.862 237.691 185.514 239.47C182.623 243.615 178.358 244.843 171.902 246.703C169.958 247.262 167.754 247.897 165.402 248.677C160.853 250.237 156.085 251.064 151.276 251.128L151.278 251.124Z" fill="white"/>
</mask>
<g mask="url(#mask1)">
<path fill-rule="evenodd" clip-rule="evenodd" d="M183.831 243.132L185.409 231.165L186.359 231.29L184.781 243.257L183.831 243.132Z" fill="#C66D32"/>
<path fill-rule="evenodd" clip-rule="evenodd" d="M179.764 245.49L181.76 230.344L182.71 230.469L180.713 245.615L179.764 245.49Z" fill="#C66D32"/>
<path fill-rule="evenodd" clip-rule="evenodd" d="M175.844 246.853L177.878 231.192L178.828 231.315L176.794 246.976L175.844 246.853Z" fill="#C66D32"/>
<path fill-rule="evenodd" clip-rule="evenodd" d="M171.903 248.035L174.129 231.688L175.077 231.817L172.852 248.164L171.903 248.035Z" fill="#C66D32"/>
<path fill-rule="evenodd" clip-rule="evenodd" d="M168 249.286L169.981 233.813L170.931 233.934L168.95 249.408L168 249.286Z" fill="#C66D32"/>
<path fill-rule="evenodd" clip-rule="evenodd" d="M164.154 249.841L165.949 236.24L166.899 236.365L165.104 249.966L164.154 249.841Z" fill="#C66D32"/>
<path fill-rule="evenodd" clip-rule="evenodd" d="M160.271 250.925L161.848 238.958L162.798 239.084L161.22 251.05L160.271 250.925Z" fill="#C66D32"/>
<path fill-rule="evenodd" clip-rule="evenodd" d="M156.32 252.055L157.898 240.087L158.848 240.213L157.27 252.18L156.32 252.055Z" fill="#C66D32"/>
<path fill-rule="evenodd" clip-rule="evenodd" d="M152.581 252.171L153.981 241.549L154.931 241.674L153.531 252.296L152.581 252.171Z" fill="#C66D32"/>
<path fill-rule="evenodd" clip-rule="evenodd" d="M148.828 251.983L150.075 242.527L151.025 242.652L149.778 252.108L148.828 251.983Z" fill="#C66D32"/>
<path fill-rule="evenodd" clip-rule="evenodd" d="M145.165 251.047L146.168 243.448L147.117 243.573L146.115 251.172L145.165 251.047Z" fill="#C66D32"/>
<path fill-rule="evenodd" clip-rule="evenodd" d="M142.944 245.796L143.318 244.915L158.555 251.371L158.182 252.253L142.944 245.796Z" fill="#C66D32"/>
<path fill-rule="evenodd" clip-rule="evenodd" d="M148.454 243.437L148.824 242.554L165.718 249.619L165.349 250.502L148.454 243.437Z" fill="#C66D32"/>
<path fill-rule="evenodd" clip-rule="evenodd" d="M156.035 241.506L156.417 240.628L172.571 247.66L172.189 248.538L156.035 241.506Z" fill="#C66D32"/>
<path fill-rule="evenodd" clip-rule="evenodd" d="M161.534 239.136L161.908 238.255L178.988 245.514L178.614 246.395L161.534 239.136Z" fill="#C66D32"/>
<path fill-rule="evenodd" clip-rule="evenodd" d="M166.533 236.17L166.917 235.293L183.965 242.757L183.581 243.634L166.533 236.17Z" fill="#C66D32"/>
<path fill-rule="evenodd" clip-rule="evenodd" d="M171.066 233.568L171.439 232.685L187.542 239.484L187.169 240.367L171.066 233.568Z" fill="#C66D32"/>
<path fill-rule="evenodd" clip-rule="evenodd" d="M177.462 231.374L177.835 230.492L188.779 235.114L188.406 235.996L177.462 231.374Z" fill="#C66D32"/>
</g>
<path fill-rule="evenodd" clip-rule="evenodd" d="M187.083 233.23C187.038 233.143 186.99 233.055 186.94 232.968C186.913 234.744 186.33 236.467 185.274 237.896C182.384 242.041 178.119 243.27 171.662 245.129C169.718 245.689 167.514 246.323 165.162 247.103C160.613 248.663 155.845 249.491 151.036 249.554C149.069 249.652 147.1 249.395 145.224 248.797C144.171 248.459 143.276 247.753 142.701 246.809C142.633 247.117 142.62 247.434 142.662 247.746C143.135 249.014 144.176 249.985 145.474 250.368C147.351 250.966 149.319 251.222 151.286 251.125C156.095 251.061 160.863 250.234 165.412 248.674C167.769 247.894 169.972 247.26 171.912 246.7C178.368 244.84 182.633 243.611 185.524 239.467C186.872 237.687 187.435 235.435 187.083 233.23Z" fill="#C66D32"/>
<path d="M185.448 230.935L183.448 242.903" stroke="#E8914F"/>
<path d="M181.382 230.115L179.382 245.262" stroke="#E8914F"/>
<path d="M177.498 230.963L175.449 246.622" stroke="#E8914F"/>
<path d="M173.738 231.46L171.519 247.808" stroke="#E8914F"/>
<path d="M169.615 233.584L167.615 249.056" stroke="#E8914F"/>
<path d="M165.772 236.012L163.772 249.614" stroke="#E8914F"/>
<path d="M161.888 238.729L159.888 250.697" stroke="#E8914F"/>
<path d="M157.938 239.858L155.938 251.826" stroke="#E8914F"/>
<path d="M154.197 241.32L152.197 251.943" stroke="#E8914F"/>
<path d="M150.444 242.298L148.444 251.755" stroke="#E8914F"/>
<path d="M146.781 243.218L144.781 250.818" stroke="#E8914F"/>
<path d="M142.269 245.064L157.507 251.521" stroke="#E8914F"/>
<path d="M147.776 242.705L164.664 249.765" stroke="#E8914F"/>
<path d="M155.363 240.776L171.518 247.808" stroke="#E8914F"/>
<path d="M160.859 238.404L177.943 245.67" stroke="#E8914F"/>
<path d="M165.864 235.44L182.912 242.903" stroke="#E8914F"/>
<path d="M170.391 232.835L186.494 239.634" stroke="#E8914F"/>
<path d="M176.786 230.641L187.735 235.258" stroke="#E8914F"/>
<circle cx="307.154" cy="57.7613" r="25.1691" fill="#7A60A6"/>
<path fill-rule="evenodd" clip-rule="evenodd" d="M331.645 51.9829C330.255 46.0711 326.764 40.8657 321.823 37.3359C321.999 37.9259 325.399 49.859 315.723 61.914C306.023 74.0019 288.348 73.5229 287.561 73.495C294.915 82.6594 307.637 85.5075 318.197 80.3539C328.757 75.2002 334.339 63.4195 331.64 51.9829H331.645Z" fill="#6D5298"/>
<path fill-rule="evenodd" clip-rule="evenodd" d="M329.766 52.0039C332.097 61.9028 327.761 72.1731 319.041 77.4057C310.321 82.6384 299.218 81.6325 291.58 74.9179C300.839 79.6004 312.033 78.0232 319.638 70.9648C327.242 63.9065 329.647 52.86 325.666 43.2789C327.627 45.8692 329.023 48.8413 329.766 52.0039H329.766Z" fill="#5F4589"/>
<path opacity="0.25" fill-rule="evenodd" clip-rule="evenodd" d="M285.419 55.3619C284.419 51.1149 287.052 46.8618 291.299 45.8622C295.546 44.8626 299.799 47.4951 300.799 51.7421C301.798 55.989 299.166 60.2422 294.919 61.2419C292.879 61.722 290.733 61.3722 288.951 60.2695C287.17 59.1667 285.899 57.4014 285.419 55.3619Z" fill="#F298BB"/>
<path opacity="0.25" fill-rule="evenodd" clip-rule="evenodd" d="M287.203 52.666C286.781 50.873 287.481 49.0023 288.976 47.9261C290.471 46.8499 292.467 46.7803 294.033 47.7496C295.599 48.719 296.427 50.5364 296.131 52.3544C295.835 54.1724 294.473 55.633 292.68 56.0549C290.232 56.6305 287.78 55.1135 287.203 52.666Z" fill="#F298BB"/>
<path opacity="0.25" fill-rule="evenodd" clip-rule="evenodd" d="M304.914 45.62C303.915 41.373 306.547 37.1198 310.794 36.1202C315.041 35.1206 319.294 37.7531 320.294 42.0001C321.293 46.247 318.661 50.5003 314.414 51.5C312.375 51.98 310.228 51.6302 308.446 50.5275C306.665 49.4248 305.394 47.6595 304.914 45.62Z" fill="#F298BB"/>
<path opacity="0.25" fill-rule="evenodd" clip-rule="evenodd" d="M307.232 42.477C306.837 40.8025 307.491 39.0554 308.887 38.0504C310.283 37.0453 312.147 36.9803 313.61 37.8856C315.072 38.7909 315.846 40.4882 315.569 42.1861C315.292 43.8839 314.02 45.2479 312.346 45.6419C310.059 46.18 307.77 44.763 307.232 42.477Z" fill="#F298BB"/>
<path opacity="0.25" fill-rule="evenodd" clip-rule="evenodd" d="M295.194 40.942C294.831 39.4061 295.429 37.8027 296.709 36.8802C297.99 35.9577 299.7 35.8979 301.042 36.7286C302.384 37.5594 303.093 39.117 302.838 40.6745C302.583 42.232 301.414 43.4824 299.878 43.8419C298.872 44.0787 297.813 43.9061 296.935 43.3622C296.056 42.8184 295.43 41.9478 295.194 40.942Z" fill="#F298BB"/>
<path opacity="0.25" fill-rule="evenodd" clip-rule="evenodd" d="M296.048 39.975C295.852 39.1479 296.174 38.2843 296.864 37.7873C297.553 37.2904 298.474 37.2581 299.197 37.7056C299.92 38.153 300.301 38.992 300.164 39.8308C300.026 40.6696 299.396 41.3427 298.569 41.536C297.442 41.7991 296.315 41.101 296.048 39.975Z" fill="#F298BB"/>
<path opacity="0.15" fill-rule="evenodd" clip-rule="evenodd" d="M315.478 37.342C312.441 35.73 300.992 33.525 292.448 42.342C285.486 49.6169 283.985 60.541 288.727 69.424C288.003 66.348 287.757 55.624 294.479 47.483C301.201 39.342 310.957 37.784 315.478 37.342Z" fill="#D6B6D8"/>
<path fill-rule="evenodd" clip-rule="evenodd" d="M315.477 37.342C315.477 37.342 301.572 33.119 292.57 43.602C283.568 54.085 287.708 67.687 288.727 69.4189C288.727 69.4189 280.25 55.063 291.343 42.528C301.699 30.826 315.477 37.342 315.477 37.342Z" fill="#D7CEE7"/>
<path fill-rule="evenodd" clip-rule="evenodd" d="M350.576 82.552C349.206 85.439 337.992 83.182 322.797 77.46C316.521 75.095 309.561 72.136 302.336 68.708C294.852 65.156 287.935 61.503 281.995 58.022C268.321 50.016 259.758 42.929 261.11 40.082C262.394 37.382 272.292 39.188 286.01 44.118C285.539 44.8504 285.105 45.606 284.71 46.382C279.145 44.777 275.456 44.406 274.869 45.646C274.251 46.946 277.169 49.774 282.387 53.302C289.288 57.797 296.502 61.7929 303.973 65.259C311.165 68.7402 318.585 71.729 326.182 74.205C332.603 76.2 336.93 76.761 337.571 75.411C338.181 74.123 335.326 71.335 330.196 67.852C330.54 67.0678 330.845 66.2668 331.108 65.452C343.957 73.113 351.879 79.807 350.576 82.552Z" fill="#D5E9F9"/>
<path fill-rule="evenodd" clip-rule="evenodd" d="M350 83.3579C348.629 86.2449 337.415 83.9879 322.221 78.2659C315.944 75.9009 308.985 72.9419 301.759 69.5139C294.276 65.9619 287.359 62.3089 281.418 58.8279C267.743 50.8219 259.181 43.7349 260.532 40.8879C261.816 38.1879 271.774 40.0279 285.489 44.9569C285.046 45.6912 284.647 46.4516 284.295 47.2339C278.73 45.6279 274.88 45.2109 274.295 46.4509C273.678 47.7509 276.595 50.5789 281.814 54.1069C288.715 58.602 295.929 62.5979 303.401 66.064C310.592 69.5453 318.012 72.5341 325.609 75.0098C332.03 77.0049 336.357 77.5659 336.999 76.2159C337.609 74.9279 334.906 72.2309 329.775 68.7479C330.119 67.9639 330.518 67.2209 330.782 66.4059C343.627 74.0659 351.303 80.6139 350 83.3579Z" fill="#F49639"/>
<path fill-rule="evenodd" clip-rule="evenodd" d="M350.576 82.552C349.206 85.439 337.992 83.182 322.797 77.46C316.521 75.095 309.561 72.136 302.336 68.708C294.852 65.156 287.935 61.503 281.995 58.022C268.321 50.016 259.758 42.929 261.11 40.082C262.394 37.382 272.292 39.188 286.01 44.118C285.539 44.8504 285.105 45.606 284.71 46.382C279.145 44.777 275.456 44.406 274.869 45.646C274.251 46.946 277.169 49.774 282.387 53.302C289.288 57.797 296.502 61.7929 303.973 65.259C311.165 68.7402 318.585 71.729 326.182 74.205C332.603 76.2 336.93 76.761 337.571 75.411C338.181 74.123 335.326 71.335 330.196 67.852C330.54 67.0678 330.845 66.2668 331.108 65.452C343.957 73.113 351.879 79.807 350.576 82.552Z" fill="#FFE568"/>
<path fill-rule="evenodd" clip-rule="evenodd" d="M344.656 75.3589C347.212 77.8409 351.363 80.7589 349.295 82.4999C347.227 84.2409 330.995 81.0999 300.118 66.7379C300.118 66.7379 331.469 78.8709 339.574 80.2969C347.615 81.7109 348.744 80.6239 344.656 75.3589Z" fill="#FCC231"/>
<path fill-rule="evenodd" clip-rule="evenodd" d="M275.904 41.4819C272.487 40.7909 264.065 38.7259 262.45 40.2959C260.835 41.8659 270.467 50.0769 273.945 52.0359C273.945 52.0359 265.303 45.0599 264.929 41.8429C264.648 39.4409 275.904 41.4819 275.904 41.4819Z" fill="#FFEDB2"/>
<path fill-rule="evenodd" clip-rule="evenodd" d="M284.637 45.4249C282.472 44.7526 280.265 44.2202 278.031 43.8309C274.847 43.3249 271.046 42.8199 271.437 44.9849C271.828 47.1499 274.728 49.8059 280.602 53.8849C286.476 57.9639 296.394 63.5389 296.394 63.5389C296.394 63.5389 281.877 56.2489 276.317 52.3489C270.757 48.4489 267.401 44.5069 268.177 42.8099C269.145 40.6929 277.956 42.1099 285.043 44.9099L284.637 45.4249Z" fill="#FFDA60"/>
<path fill-rule="evenodd" clip-rule="evenodd" d="M68.3052 87.774C68.3052 87.774 42.4612 91.5631 21.5451 84.153C20.9598 83.9427 20.6395 83.313 20.8142 82.7161C21.1601 81.5291 21.7422 79.439 22.3142 76.9611C23.6512 71.1801 68.3052 87.774 68.3052 87.774Z" fill="#A9CBD3"/>
<path fill-rule="evenodd" clip-rule="evenodd" d="M22.3138 76.9611C21.9598 78.493 21.6028 79.876 21.2998 80.991C42.1848 89.274 68.2998 87.774 68.2998 87.774C68.2998 87.774 23.6498 71.1801 22.3138 76.9611Z" fill="#8CB8BF"/>
<path fill-rule="evenodd" clip-rule="evenodd" d="M26.57 52.613C26.57 52.613 26.7699 63.863 23.694 69.649C20.6181 75.4351 57.767 88.3611 68.3059 87.7751C68.3059 87.7751 53.841 75.5871 45.9059 65.8381C40.7572 59.7822 34.0806 55.2157 26.57 52.613Z" fill="#CCE4EA"/>
<path opacity="0.5" fill-rule="evenodd" clip-rule="evenodd" d="M23.6938 69.6491C20.6198 75.4351 57.7668 88.3611 68.3057 87.7751C51.4708 82.3751 28.4128 63.2271 28.4128 63.2271C28.2851 59.6216 27.665 56.0505 26.5698 52.613C26.5698 52.6131 26.7678 63.8631 23.6938 69.6491Z" fill="#A9CBD3"/>
<path fill-rule="evenodd" clip-rule="evenodd" d="M15.2391 55.714C14.1631 55.908 9.15711 56.74 3.86719 57.202C-4.08178 57.896 -10.9418 56.537 -10.0508 58.668C-9.25573 60.568 3.16224 72.757 20.9843 79.448C38.8063 86.139 61.0732 88.348 68.3053 87.773C58.0518 83.9869 48.1753 79.2489 38.8053 73.621C24.0571 64.635 18.3262 55.155 15.2391 55.714Z" fill="#F7FCFE"/>
<path fill-rule="evenodd" clip-rule="evenodd" d="M68.3054 87.7741C68.3054 87.7741 58.5814 77.7381 52.9214 66.8181C45.5094 52.5121 43.7504 41.5361 42.9653 40.4881C42.1803 39.4401 38.8793 41.9481 33.6073 45.9881C31.0796 47.9943 28.7252 50.2097 26.5693 52.611C26.5693 52.6111 51.6154 82.0051 68.3054 87.7741Z" fill="#F7FCFE"/>
<path fill-rule="evenodd" clip-rule="evenodd" d="M11.2702 57.958C2.69223 60.103 -7.68876 58.344 -5.29374 61.286C-2.89872 64.228 20.7563 82.505 54.5953 85.524C54.5953 85.524 25.0254 78.169 11.9353 70.202C-3.44474 60.842 2.25521 60.956 4.68832 60.402C7.00351 59.9614 9.22836 59.1353 11.2702 57.958Z" fill="white"/>
<path fill-rule="evenodd" clip-rule="evenodd" d="M63.4379 84.5611C63.4379 84.5611 40.4188 66.7751 29.0879 53.0381C29.0879 53.0381 33.7878 46.7121 39.6479 43.582C39.6479 43.582 34.8049 48.0041 33.33 50.8821C32.647 52.216 33.9979 55.0201 36.2789 57.958C41.684 64.9231 63.4379 84.5611 63.4379 84.5611Z" fill="white"/>
<path fill-rule="evenodd" clip-rule="evenodd" d="M279.022 129.475C279.022 129.475 259.767 137.74 242.022 136.307C241.525 136.264 241.147 135.842 241.159 135.343C241.183 134.351 241.202 132.611 241.136 130.573C240.983 125.814 279.022 129.475 279.022 129.475Z" fill="#A9CBD3"/>
<path fill-rule="evenodd" clip-rule="evenodd" d="M241.14 130.572C241.181 131.833 241.189 132.979 241.184 133.905C259.084 136.021 279.022 129.475 279.022 129.475C279.022 129.475 240.983 125.814 241.14 130.572Z" fill="#8CB8BF"/>
<path fill-rule="evenodd" clip-rule="evenodd" d="M239.42 110.819C239.42 110.819 241.893 119.499 240.702 124.619C239.511 129.739 270.974 132.1 279.023 129.474C279.023 129.474 265.297 123.007 257.138 117.084C251.897 113.451 245.78 111.287 239.42 110.819Z" fill="#CCE4EA"/>
<path opacity="0.5" fill-rule="evenodd" clip-rule="evenodd" d="M240.702 124.619C239.512 129.738 270.974 132.1 279.023 129.474C264.86 128.761 243.036 118.667 243.036 118.667C242.194 115.898 240.977 113.258 239.42 110.819C239.42 110.819 241.893 119.498 240.702 124.619Z" fill="#A9CBD3"/>
<path fill-rule="evenodd" clip-rule="evenodd" d="M231.278 115.559C230.484 115.932 226.778 117.608 222.769 119.059C216.75 121.236 211.152 121.596 212.282 123.065C213.29 124.375 225.43 131.265 240.625 132.777C255.82 134.289 273.539 131.414 279.025 129.477C270.296 128.655 261.663 127.017 253.239 124.586C239.949 120.653 233.553 114.489 231.278 115.559Z" fill="#F7FCFE"/>
<path fill-rule="evenodd" clip-rule="evenodd" d="M279.023 129.475C279.023 129.475 269.416 123.699 262.776 116.397C254.081 106.835 250.456 98.6879 249.63 98.0369C248.804 97.3859 246.764 100.012 243.511 104.237C241.964 106.313 240.596 108.517 239.42 110.823C239.42 110.823 264.896 128.442 279.023 129.475Z" fill="#F7FCFE"/>
<path fill-rule="evenodd" clip-rule="evenodd" d="M228.661 118.117C222.454 121.547 214.043 122.324 216.506 124.111C218.969 125.898 241.075 135.19 267.93 130.556C267.93 130.556 243.491 130.951 231.701 127.472C217.847 123.386 222.291 122.3 224.062 121.365C225.766 120.547 227.321 119.45 228.661 118.117Z" fill="white"/>
<path fill-rule="evenodd" clip-rule="evenodd" d="M274.586 127.986C274.586 127.986 253.075 118.944 241.459 110.629C241.459 110.629 243.802 104.755 247.697 101.121C247.697 101.121 244.854 105.547 244.304 108.082C244.049 109.257 245.674 111.153 248.048 112.96C253.674 117.246 274.586 127.986 274.586 127.986Z" fill="white"/>
<path fill-rule="evenodd" clip-rule="evenodd" d="M2.55957 128.712H-7.4724C-8.29137 121.916 -14.0563 116.802 -20.9014 116.799V110.489C-20.9039 102.79 -27.1438 96.5534 -34.8391 96.555L-34.8353 96.5549C-42.5309 96.555 -48.7693 102.793 -48.7693 110.489V114.611C-50.7268 110.628 -55.1727 108.521 -59.4951 109.528C-63.8175 110.536 -66.8741 114.391 -66.8691 118.829L-66.8693 128.713H-78.6033C-80.9087 128.714 -82.7773 130.583 -82.7773 132.888H-82.7772C-82.7773 135.192 -80.9093 137.061 -78.6044 137.062H2.55872C4.86414 137.062 6.73315 135.193 6.73376 132.888C6.73426 131.782 6.29493 130.719 5.51221 129.936C4.72962 129.153 3.66785 128.712 2.56055 128.712H2.55957Z" fill="white"/>
<circle cx="191.097" cy="17.516" r="7.327" fill="white" fill-opacity="0.2"/>
<path fill-rule="evenodd" clip-rule="evenodd" d="M191.096 26.103C190.413 26.103 189.858 25.5489 189.857 24.865V10.165C189.858 9.48114 190.412 8.927 191.096 8.927C191.425 8.927 191.74 9.0574 191.972 9.28958C192.204 9.52176 192.334 9.83664 192.334 10.165V24.865C192.334 25.1939 192.204 25.5088 191.971 25.7408C191.739 25.9729 191.424 26.1032 191.096 26.103H191.096Z" fill="white" fill-opacity="0.298039"/>
<path fill-rule="evenodd" clip-rule="evenodd" d="M199.683 17.515C199.683 18.1989 199.129 18.7534 198.445 18.754H183.745C183.061 18.7534 182.507 18.1989 182.507 17.515C182.507 17.186 182.638 16.8712 182.87 16.6392C183.102 16.4071 183.417 16.2768 183.745 16.277H198.445C198.773 16.277 199.088 16.4074 199.32 16.6396C199.552 16.8717 199.683 17.1866 199.683 17.515Z" fill="white" fill-opacity="0.298039"/>
<path fill-rule="evenodd" clip-rule="evenodd" d="M196.293 17.515C196.293 18.1992 195.739 18.754 195.054 18.7539H187.137C186.453 18.754 185.898 18.1992 185.898 17.515C185.9 16.8315 186.454 16.278 187.137 16.278H195.054C195.738 16.278 196.292 16.8315 196.293 17.515Z" fill="white"/>
<path fill-rule="evenodd" clip-rule="evenodd" d="M191.096 22.713C190.412 22.713 189.857 22.1583 189.857 21.474V13.553C189.857 12.8687 190.412 12.314 191.096 12.314C191.78 12.3145 192.334 12.869 192.334 13.553V21.47C192.335 21.7991 192.206 22.1151 191.973 22.3484C191.741 22.5815 191.426 22.7127 191.096 22.713Z" fill="white"/>
<path fill-rule="evenodd" clip-rule="evenodd" d="M235.469 67.154C235.469 66.0634 236.353 65.1791 237.443 65.179C238.534 65.1788 239.418 66.0627 239.419 67.1533C239.419 68.244 238.535 69.1284 237.445 69.129C236.921 69.1292 236.418 68.9213 236.047 68.5508C235.677 68.1804 235.469 67.6779 235.469 67.154Z" fill="#FFEDB2"/>
<path fill-rule="evenodd" clip-rule="evenodd" d="M103.623 8.92999C103.623 8.13049 104.105 7.41052 104.843 7.10507C105.581 6.79965 106.431 6.9689 106.995 7.53397C107.56 8.099 107.729 8.94855 107.422 9.68646C107.117 10.4243 106.396 10.9053 105.597 10.905C104.507 10.9047 103.623 10.0205 103.623 8.92999Z" fill="#FFEDB2"/>
<path fill-rule="evenodd" clip-rule="evenodd" d="M95.3662 59.633C95.3658 58.8339 95.8469 58.113 96.5852 57.8068C97.3236 57.5005 98.1737 57.6693 98.739 58.2343C99.3044 58.7993 99.4738 59.6492 99.168 60.3878C98.8623 61.1263 98.1417 61.6079 97.3424 61.608C96.8184 61.6083 96.3157 61.4003 95.9451 61.0299C95.5745 60.6595 95.3662 60.157 95.3662 59.633Z" fill="#FFEDB2"/>
<path fill-rule="evenodd" clip-rule="evenodd" d="M214.091 4.77402C214.09 3.97549 214.572 3.25479 215.31 2.9487C216.048 2.64261 216.898 2.81137 217.464 3.37631C218.029 3.94125 218.198 4.79114 217.893 5.5296C217.587 6.2681 216.867 6.74976 216.067 6.75003C215.543 6.75018 215.04 6.54205 214.67 6.17148C214.299 5.80087 214.091 5.29819 214.091 4.77402Z" fill="#FFEDB2"/>
<defs>
<linearGradient id="paint0_linear" x1="94.2475" y1="191.886" x2="94.2475" y2="269.141" gradientUnits="userSpaceOnUse">
<stop stop-color="#F59D10" stop-opacity="0.501961"/>
<stop offset="0.144" stop-color="#F59D10" stop-opacity="0.470588"/>
<stop offset="0.361" stop-color="#F59D12" stop-opacity="0.384314"/>
<stop offset="0.624" stop-color="#F69E16" stop-opacity="0.247059"/>
<stop offset="0.921" stop-color="#F69F1B" stop-opacity="0.054902"/>
<stop offset="1" stop-color="#F7A01D" stop-opacity="0.01"/>
</linearGradient>
<linearGradient id="paint1_linear" x1="176.336" y1="90.2262" x2="176.336" y2="70.4792" gradientUnits="userSpaceOnUse">
<stop stop-color="#F2A37C"/>
<stop offset="0.09" stop-color="#F2A47D" stop-opacity="0.968627"/>
<stop offset="0.225" stop-color="#F2A780" stop-opacity="0.882353"/>
<stop offset="0.39" stop-color="#F3AC86" stop-opacity="0.741176"/>
<stop offset="0.577" stop-color="#F4B28D" stop-opacity="0.54902"/>
<stop offset="0.783" stop-color="#F6BB97" stop-opacity="0.298039"/>
<stop offset="1" stop-color="#F8C6A3" stop-opacity="0.01"/>
</linearGradient>
<linearGradient id="paint2_linear" x1="195.755" y1="88.5632" x2="195.755" y2="70.4464" gradientUnits="userSpaceOnUse">
<stop stop-color="#F2A37C"/>
<stop offset="0.09" stop-color="#F2A47D" stop-opacity="0.968627"/>
<stop offset="0.225" stop-color="#F2A780" stop-opacity="0.882353"/>
<stop offset="0.39" stop-color="#F3AC86" stop-opacity="0.741176"/>
<stop offset="0.577" stop-color="#F4B28D" stop-opacity="0.54902"/>
<stop offset="0.783" stop-color="#F6BB97" stop-opacity="0.298039"/>
<stop offset="1" stop-color="#F8C6A3" stop-opacity="0.01"/>
</linearGradient>
</defs>
</svg>
