<svg width="26" height="19" viewBox="0 0 26 19" fill="none" xmlns="http://www.w3.org/2000/svg">
<path fill-rule="evenodd" clip-rule="evenodd" d="M17.2297 1.20511C16.8742 0.868774 16.3159 0.875244 15.9682 1.2197C15.6205 1.56418 15.6088 2.12238 15.9417 2.48111L22.4757 9.01511H0.911743C0.414703 9.01511 0.0117493 9.41806 0.0117493 9.9151C0.00787354 10.4162 0.410675 10.8257 0.911743 10.8301H22.4757L15.9417 17.3551C15.5931 17.7141 15.5931 18.2852 15.9417 18.6441C16.1111 18.8179 16.3436 18.9159 16.5862 18.9159C16.8289 18.9159 17.0613 18.8179 17.2307 18.6441L25.3117 10.5611C25.4848 10.394 25.5825 10.1637 25.5825 9.9231C25.5825 9.68253 25.4848 9.45224 25.3117 9.2851L17.2297 1.20511Z" fill="white"/>
</svg>
