<svg width="375" height="280" viewBox="0 0 375 280" fill="none" xmlns="http://www.w3.org/2000/svg">
<mask id="mask0" mask-type="alpha" maskUnits="userSpaceOnUse" x="0" y="0" width="375" height="280">
<rect width="375" height="280" fill="white"/>
</mask>
<g mask="url(#mask0)">
<mask id="mask1" mask-type="alpha" maskUnits="userSpaceOnUse" x="-39" y="-1" width="453" height="261">
<rect x="-38.0664" y="-0.25" width="451.186" height="259.256" fill="white"/>
</mask>
<g mask="url(#mask1)">
<g opacity="0.2">
<mask id="mask2" mask-type="alpha" maskUnits="userSpaceOnUse" x="1" y="7" width="380" height="255">
<rect x="1.02148" y="7.50806" width="379.055" height="253.904" fill="white"/>
</mask>
<g mask="url(#mask2)">
<path fill-rule="evenodd" clip-rule="evenodd" d="M3.26409 261.412H371.832C375.275 253.293 385.137 223.234 365.532 194.005C365.532 194.005 356.732 176.305 354.591 163.205C352.846 152.524 352.472 139.713 353.48 125.128C354.241 114.12 355.288 103.462 356.224 94.966C370.35 89.595 380.078 78.324 380.078 65.287C380.078 47.046 361.036 32.259 337.546 32.259C334.286 32.2565 331.032 32.547 327.823 33.127C311.011 22.055 287.509 13.018 257.861 9.35001C246.09 7.8101 234.211 7.24818 222.347 7.67002C208.69 8.27001 196.712 10.535 186.747 14.4C181.196 16.4962 176.031 19.4989 171.463 23.286C157.135 16.85 139.778 11.852 119.563 9.35101C107.791 7.81105 95.9125 7.24911 84.0481 7.671C70.3911 8.27101 58.4131 10.536 48.4481 14.401C27.5321 22.511 19.9621 38.161 17.2941 49.861C15.3456 58.8088 15.2751 68.0636 17.0871 77.04C18.5361 84.375 23.5871 91.048 26.6411 94.426C39.3351 117.164 71.9291 116.999 48.2151 146.75C16.4321 186.618 -6.40791 237.291 3.26409 261.412ZM350.945 103.435C350.286 110.02 349.638 117.31 349.121 124.76C348.085 139.695 348.472 152.86 350.27 163.882C351.185 169.887 352.782 175.769 355.03 181.412C354.93 181.312 354.83 181.212 354.73 181.112C329.16 156.133 341.44 127.681 350.95 103.437M92.0271 16.838C92.0271 16.838 27.2921 19.418 22.2551 69.463C22.1118 70.885 22.0211 72.2583 21.9831 73.583C20.1107 66.133 19.9626 58.3539 21.5501 50.838C23.9811 40.175 30.8941 25.907 50.0191 18.491C71.6441 10.106 99.4391 11.254 118.947 13.691C125.096 14.4717 131.195 15.6127 137.21 17.1081C124.333 16.342 109.387 16.218 92.0261 16.835" fill="#93E3F1"/>
</g>
</g>
</g>
<g opacity="0.5">
<mask id="mask3" mask-type="alpha" maskUnits="userSpaceOnUse" x="98" y="198" width="46" height="16">
<rect x="98.6992" y="198.884" width="45.007" height="14.636" fill="white"/>
</mask>
<g mask="url(#mask3)">
<path fill-rule="evenodd" clip-rule="evenodd" d="M98.6992 213.52C99.1568 210.864 101.415 208.893 104.108 208.798C104.582 208.799 105.053 208.867 105.508 208.998C106.71 205.943 109.626 203.906 112.908 203.829C113.735 203.827 114.557 203.962 115.34 204.229C117.018 201 120.328 198.949 123.966 198.884C128.363 199.007 132.183 201.943 133.434 206.16C134.444 205.537 135.607 205.206 136.793 205.204C140.609 205.204 143.703 208.598 143.703 212.785C143.703 213.033 143.692 213.278 143.67 213.521L98.6992 213.52Z" fill="white"/>
</g>
</g>
<g opacity="0.5">
<mask id="mask4" mask-type="alpha" maskUnits="userSpaceOnUse" x="299" y="92" width="46" height="16">
<rect x="299.804" y="92.9609" width="45.008" height="14.637" fill="white"/>
</mask>
<g mask="url(#mask4)">
<path fill-rule="evenodd" clip-rule="evenodd" d="M299.801 107.598C300.258 104.942 302.516 102.97 305.21 102.876C305.683 102.877 306.155 102.944 306.61 103.076C307.812 100.021 310.728 97.9839 314.01 97.9068C314.837 97.9052 315.658 98.0404 316.441 98.3068C318.119 95.0782 321.429 93.027 325.067 92.9619C329.464 93.0853 333.284 96.0208 334.535 100.238C335.545 99.6144 336.707 99.2834 337.894 99.2819C341.71 99.2819 344.804 102.676 344.804 106.863C344.804 107.111 344.792 107.356 344.771 107.599L299.801 107.598Z" fill="white"/>
</g>
</g>
<g opacity="0.5">
<mask id="mask5" mask-type="alpha" maskUnits="userSpaceOnUse" x="221" y="175" width="46" height="15">
<rect x="221.404" y="175.004" width="45.006" height="14.636" fill="white"/>
</mask>
<g mask="url(#mask5)">
<path fill-rule="evenodd" clip-rule="evenodd" d="M221.403 189.64C221.861 186.984 224.119 185.013 226.812 184.918C227.286 184.92 227.757 184.987 228.213 185.118C229.414 182.063 232.33 180.026 235.612 179.949C236.439 179.947 237.261 180.083 238.043 180.349C239.721 177.12 243.031 175.069 246.669 175.004C251.067 175.127 254.887 178.063 256.137 182.28C257.147 181.656 258.31 181.325 259.496 181.324C263.312 181.324 266.406 184.718 266.406 188.905C266.406 189.153 266.396 189.398 266.374 189.64H221.403Z" fill="white"/>
</g>
</g>
<g opacity="0.5">
<mask id="mask6" mask-type="alpha" maskUnits="userSpaceOnUse" x="34" y="61" width="23" height="8">
<rect x="34.0459" y="61.144" width="22.485" height="7.311" fill="white"/>
</mask>
<g mask="url(#mask6)">
<path fill-rule="evenodd" clip-rule="evenodd" d="M34.0459 68.456C34.2741 67.1298 35.401 66.1452 36.7459 66.097C36.9828 66.0976 37.2184 66.1313 37.4459 66.197C38.0468 64.6698 39.5052 63.6521 41.1459 63.615C41.5592 63.6142 41.9697 63.6818 42.3609 63.815C43.1993 62.2021 44.8534 61.1774 46.6709 61.145C48.8677 61.2065 50.7761 62.6731 51.4009 64.78C51.9052 64.4684 52.4861 64.3029 53.0789 64.302C55.0748 64.3981 56.6179 66.0887 56.5319 68.085C56.5319 68.209 56.5259 68.331 56.5149 68.452L34.0459 68.456Z" fill="white"/>
</g>
</g>
<g opacity="0.5">
<mask id="mask7" mask-type="alpha" maskUnits="userSpaceOnUse" x="35" y="32" width="56" height="19">
<rect x="35.7002" y="32.204" width="54.916" height="17.858" fill="white"/>
</mask>
<g mask="url(#mask7)">
<path fill-rule="evenodd" clip-rule="evenodd" d="M90.6163 50.062C90.058 46.8211 87.3029 44.4162 84.0163 44.301C83.4379 44.3007 82.8624 44.3811 82.3063 44.54C80.8397 40.8116 77.2806 38.326 73.2753 38.233C72.2658 38.2326 71.2633 38.3992 70.3083 38.726C68.261 34.7863 64.2214 32.2833 59.7823 32.204C54.4693 32.204 49.9442 35.904 48.2303 41.082C46.998 40.3208 45.5786 39.9168 44.1302 39.915C39.4732 39.915 35.6982 44.056 35.6982 49.165C35.6982 49.465 35.7122 49.765 35.7383 50.065L90.6163 50.062Z" fill="white"/>
</g>
</g>
<g opacity="0.5">
<mask id="mask8" mask-type="alpha" maskUnits="userSpaceOnUse" x="203" y="39" width="82" height="27">
<rect x="203.53" y="39.277" width="80.757" height="26.263" fill="white"/>
</mask>
<g mask="url(#mask8)">
<path fill-rule="evenodd" clip-rule="evenodd" d="M284.287 65.5391C283.271 60.6871 279.313 57.0661 274.581 57.0661C273.731 57.0658 272.885 57.1843 272.068 57.4181C269.911 51.9352 264.677 48.2799 258.787 48.1431C257.302 48.1424 255.828 48.3874 254.423 48.868C251.413 43.0741 245.473 39.3932 238.944 39.2771C231.131 39.2771 224.477 44.7171 221.956 52.3321C220.145 51.213 218.058 50.619 215.928 50.6161C209.08 50.6161 203.528 56.7061 203.528 64.2161C203.528 64.6611 203.549 65.1011 203.587 65.5361L284.287 65.5391Z" fill="white"/>
</g>
</g>
<g opacity="0.4">
<mask id="mask9" mask-type="alpha" maskUnits="userSpaceOnUse" x="20" y="89" width="58" height="48">
<rect x="20.7803" y="89.324" width="56.641" height="47.035" fill="white"/>
</mask>
<g mask="url(#mask9)">
<path fill-rule="evenodd" clip-rule="evenodd" d="M47.0621 96.4839C47.7471 97.7469 48.1141 99.1989 48.8621 100.422C49.7804 101.754 50.9384 102.903 52.2771 103.812C57.9191 108.159 63.757 112.601 70.4881 114.237C72.177 114.647 73.9671 114.903 75.3881 115.99C78.319 118.237 78.0371 123.939 74.9021 125.826C71.3151 127.985 65.9091 125.456 63.2681 128.886C62.194 130.28 61.9881 132.286 60.9351 133.701C59.5281 135.589 57.0541 135.916 54.8351 136.075C53.3164 136.184 51.7971 136.279 50.2771 136.36C57.0591 119.681 41.106 115.324 29.931 102.446C30.2511 102.397 30.5701 102.346 30.888 102.286C31.5085 102.225 32.097 101.981 32.579 101.586C33.0786 101.127 33.1853 100.379 32.834 99.7989C30.6641 98.6885 28.3823 97.812 26.027 97.1839C25.4764 96.3005 24.9547 95.3796 24.462 94.4209C23.129 92.8016 21.9019 91.0981 20.7881 89.3209C25.742 89.5799 30.683 89.9979 35.611 90.6529C39.948 91.2289 44.836 92.3619 47.069 96.4809" fill="white"/>
</g>
</g>
<path fill-rule="evenodd" clip-rule="evenodd" d="M348.052 257.848C348.052 257.848 316.841 245.055 323.152 235.94C323.152 235.94 323.252 232.676 334.991 237.589C334.991 237.589 339.721 236.607 337.228 232.151C334.735 227.695 324.097 224.736 325.885 218.667C327.673 212.598 334.055 218.159 337.785 217.811C341.515 217.463 329.285 200.972 332.179 196.857C335.073 192.742 340.447 198.938 343.214 198.467C345.981 197.996 340.052 174.137 353.24 171.824C366.428 169.511 358.773 183.956 356.498 191.524C354.223 199.092 363.327 190.493 368.189 195.824C373.051 201.155 350.877 207.055 356.252 211.882C361.627 216.709 365.044 210.34 368.785 214.098C374.833 220.173 351.626 224.044 355.079 228.624C357.833 232.276 363.13 225.905 365.729 228.466C368.328 231.027 363.093 248.328 348.053 257.847" fill="#D9EDF6"/>
<g style="mix-blend-mode:color-dodge" opacity="0.1">
<mask id="mask10" mask-type="alpha" maskUnits="userSpaceOnUse" x="322" y="171" width="48" height="87">
<rect x="322.757" y="171.58" width="46.647" height="86.269" fill="white"/>
</mask>
<g mask="url(#mask10)">
<path fill-rule="evenodd" clip-rule="evenodd" d="M322.757 236.612C322.803 236.517 322.857 236.422 322.908 236.328C323.808 237.066 324.844 237.846 325.993 238.615C330.215 241.443 336.916 244.7 344.919 244.243C344.462 239.833 344.295 235.398 344.419 230.966C337.297 223.127 330.975 220.056 326.926 218.861C326.575 218.761 326.236 218.667 325.907 218.586C325.938 218.486 325.97 218.386 326.007 218.286C326.327 218.366 326.657 218.454 326.998 218.554C331.05 219.745 337.345 222.786 344.432 230.502C344.432 230.482 344.432 230.462 344.432 230.442C344.568 225.542 344.993 220.291 345.702 214.731C344.317 211.688 342.722 208.746 340.928 205.925C338.711 202.285 335.94 199.012 332.715 196.225C332.796 196.15 332.877 196.082 332.96 196.019C336.197 198.821 338.98 202.109 341.209 205.765C342.911 208.448 344.439 211.239 345.782 214.119C346.336 209.882 347.052 205.476 347.93 200.901C349.856 191.008 352.298 181.222 355.247 171.585C355.364 171.58 355.478 171.576 355.591 171.575C352.631 181.234 350.182 191.041 348.252 200.957C347.838 203.11 347.434 205.371 347.052 207.71C349.54 205.734 352.145 203.911 354.852 202.251C359.046 199.634 363.504 197.466 368.152 195.783L368.187 195.821C368.252 195.892 368.312 195.964 368.367 196.036C363.708 197.715 359.241 199.884 355.039 202.506C352.234 204.221 349.542 206.116 346.982 208.18C346.155 213.368 345.46 218.931 345.071 224.56C351.248 220.053 363.228 216.291 369.218 214.595C369.285 214.685 369.347 214.774 369.403 214.864C363.39 216.564 351.136 220.397 345.043 224.973C344.417 232.811 344.683 240.695 345.837 248.473C351.956 246.213 357.112 240.179 360.375 235.487C362.043 233.074 363.565 230.563 364.931 227.967C365.034 228.002 365.135 228.045 365.231 228.097C363.859 230.704 362.331 233.227 360.655 235.651C357.355 240.4 352.123 246.514 345.893 248.785C346.398 251.837 347.167 254.839 348.193 257.757L348.053 257.848L347.854 257.764C346.384 253.485 345.411 249.051 344.954 244.55C344.432 244.58 343.909 244.595 343.385 244.596C340.276 244.586 337.189 244.071 334.245 243.071C331.254 242.049 328.413 240.633 325.796 238.86C324.667 238.104 323.65 237.338 322.757 236.611" fill="#DAEEF7"/>
</g>
</g>
<path fill-rule="evenodd" clip-rule="evenodd" d="M48.0724 245.573C48.0724 245.573 52.5794 223.489 33.5834 201.6L31.0694 209.5L31.1994 199.537C31.1994 199.537 19.6094 187.253 9.15039 180.695C9.15039 180.695 13.9244 207.31 16.8654 212.803L24.0304 217.844L16.1954 217.91C16.1954 217.91 18.5004 232.781 28.4194 242.741C38.3384 252.701 48.0724 245.57 48.0724 245.57" fill="#FEB546"/>
<path fill-rule="evenodd" clip-rule="evenodd" d="M26.3855 152.634C34.9175 152.72 30.5855 164.864 29.2855 168.088C31.4801 169.908 33.5235 171.902 35.3955 174.052C35.3265 169.829 32.5315 166.808 33.3105 164.152C34.1845 161.173 37.0805 158.632 39.6845 163.691C41.7485 167.699 37.7845 172.856 36.0495 174.826C38.407 177.633 40.4213 180.711 42.0496 183.995C42.6865 179.115 39.8595 175.26 41.0765 172.333C42.4085 169.133 45.8895 166.689 48.0855 172.673C49.9015 177.619 44.4055 183.08 42.4435 184.826C43.0506 186.1 43.5552 187.42 43.9525 188.774C44.7657 191.676 45.4243 194.619 45.9255 197.59C46.5865 193.305 44.8575 189.53 46.3075 187.014C48.0485 183.995 51.7855 182.048 53.1075 188.365C54.1575 193.365 48.5955 197.865 46.2255 199.534C47.0295 205.091 47.2671 210.716 46.9345 216.321C48.8855 212.721 49.1945 206.343 52.0665 203.621C53.9505 201.834 55.6615 202.146 56.7715 202.731C57.7244 203.244 58.3671 204.19 58.4935 205.265C59.3675 211.527 49.8055 216.056 46.8725 217.291C46.4782 222.871 45.522 228.397 44.0185 233.785C45.0425 231.933 46.5765 229.13 47.3115 227.643C48.4705 225.298 51.1855 222.657 53.5625 222.343C53.6625 222.33 53.7625 222.321 53.8525 222.314C55.6383 222.229 57.1772 223.559 57.3525 225.338C58.3525 232.394 46.1525 235.03 43.5085 235.516L43.4795 235.616C41.5905 242.171 38.7474 248.412 35.0415 254.139L34.0875 253.473C37.5187 248.133 40.1957 242.345 42.0425 236.273C33.3505 229.601 34.3555 222.245 36.9685 220.833C39.6685 219.374 43.8235 220.716 42.8905 225.904C42.4547 228.689 42.3694 231.518 42.6365 234.324C44.2241 228.841 45.2336 223.207 45.6485 217.514C31.4865 213.338 35.6015 204.329 39.3115 203.853C43.0665 203.372 44.3505 205.786 44.3815 210.143C44.4077 212.38 44.8573 214.592 45.7065 216.662C46.0509 211.16 45.8381 205.638 45.0715 200.179C42.4605 201.115 35.6495 203.041 32.8205 198.901C29.2845 193.726 33.0305 191.801 36.2415 192.255C39.1935 192.674 40.7295 197.364 44.9465 199.322C44.4316 195.911 43.7066 192.534 42.7755 189.212C41.9696 186.666 40.8596 184.226 39.4695 181.945C36.9375 183.211 30.3895 185.945 27.0555 182.268C22.8675 177.655 26.3875 175.278 29.6665 175.307C32.5915 175.333 34.6765 179.476 38.8865 180.974C36.1048 176.529 32.633 172.555 28.6015 169.202C25.9665 170.502 19.6075 173.05 16.3395 169.449C12.1515 164.835 15.6715 162.459 18.9505 162.488C21.9175 162.514 24.0175 166.776 28.3505 168.219L28.4345 168.113C27.4885 166.713 25.4715 163.735 24.4345 162.37C23.0445 160.549 22.2505 157.27 23.2835 155.09C23.861 153.822 25.0156 152.91 26.3835 152.643" fill="#DAEEF7"/>
<path fill-rule="evenodd" clip-rule="evenodd" d="M344.261 255.974C344.261 255.974 341.777 236.149 360.042 218.257L361.728 225.418L362.288 216.618C362.288 216.618 373.361 206.646 383.046 201.642C383.046 201.642 377.025 224.77 374.054 229.397L367.382 233.31L374.299 233.954C374.299 233.954 371.255 246.904 361.817 254.954C352.379 263.004 344.262 255.979 344.262 255.979" fill="#FF5B7E"/>
<path fill-rule="evenodd" clip-rule="evenodd" d="M-6.26364 206.019C-6.29755 212.878 -4.52701 219.625 -1.12968 225.583C2.33736 225.242 6.47036 224.913 6.47036 224.913L1.20036 229.129C15.2164 248.038 44.0584 250.874 44.0584 250.874C44.1844 233.781 39.1584 223.022 32.2474 216.296C29.9884 217.275 26.6474 218.768 26.6474 218.768L29.9204 214.232C26.4074 211.444 22.4198 209.313 18.1494 207.942C16.4634 210.309 14.4844 212.954 14.4844 212.954L14.2044 206.837C7.48699 205.324 0.550034 205.047 -6.2666 206.02" fill="#07085B"/>
<path fill-rule="evenodd" clip-rule="evenodd" d="M32.2484 216.296C29.9894 217.275 26.6484 218.768 26.6484 218.768L29.9214 214.232C26.4085 211.444 22.4208 209.313 18.1504 207.942C16.4644 210.309 14.4854 212.954 14.4854 212.954L14.2054 206.837C7.48798 205.324 0.551031 205.047 -6.26562 206.02C8.08039 229.53 44.0604 250.876 44.0604 250.876C44.1864 233.783 39.1604 223.024 32.2494 216.298" fill="#55769F"/>
<path fill-rule="evenodd" clip-rule="evenodd" d="M-9.19433 234.344C-4.81092 232.839 -0.167484 232.238 4.45468 232.58C5.41967 234.28 6.61867 236.293 6.61867 236.293L7.40367 232.92C23.6577 235.465 35.1387 248.399 35.1387 248.399C24.7737 252.099 16.5237 252.042 10.0897 250.231C9.92167 248.962 9.70067 247.075 9.70067 247.075L8.04567 249.575C5.25118 248.571 2.61943 247.161 0.234684 245.391C1.10567 244.091 2.04667 242.602 2.04667 242.602L-1.77233 243.776C-4.83463 241.143 -7.35546 237.94 -9.19434 234.344" fill="#FF5B7E"/>
<path fill-rule="evenodd" clip-rule="evenodd" d="M10.0887 250.23C9.92066 248.961 9.69966 247.074 9.69966 247.074L8.04466 249.574C5.25054 248.571 2.6188 247.163 0.233659 245.396C1.10466 244.096 2.04566 242.607 2.04566 242.607L-1.77334 243.781C-4.83572 241.146 -7.35622 237.941 -9.19434 234.344C9.97266 236.063 35.1377 248.396 35.1377 248.396C24.7727 252.101 16.5227 252.039 10.0887 250.228" fill="#E03268"/>
<path fill-rule="evenodd" clip-rule="evenodd" d="M377.558 249.38C377.558 249.38 375.446 239.106 354.851 238.118C334.256 237.13 332.145 244.277 301.517 241.251C270.889 238.225 255.433 226.198 207.207 227.991C158.981 229.784 166.018 237.615 117.744 238.561C69.4702 239.507 62.6672 230.344 37.0442 233.069C11.4212 235.794 1.01924 249.964 1.01924 249.964L-18.4678 279.541L376.501 273.75L377.558 249.38Z" fill="#02CCC0"/>
<path fill-rule="evenodd" clip-rule="evenodd" d="M258.242 169.17C257.871 169.495 257.536 169.826 257.242 170.17C257.541 169.826 257.871 169.495 258.242 169.17Z" fill="#06BFAD"/>
<path fill-rule="evenodd" clip-rule="evenodd" d="M258.219 169.826C257.852 170.151 257.491 170.486 257.219 170.826C257.491 170.486 257.858 170.151 258.219 169.826Z" fill="#06BFAD"/>
<path fill-rule="evenodd" clip-rule="evenodd" d="M258.198 170.61C257.81 170.936 257.477 171.269 257.198 171.61C257.477 171.269 257.865 170.936 258.198 170.61Z" fill="#06BFAD"/>
<path fill-rule="evenodd" clip-rule="evenodd" d="M258.275 168.437C257.921 168.76 257.567 169.104 257.275 169.437C257.598 169.095 257.921 168.757 258.275 168.437Z" fill="#06BFAD"/>
<path fill-rule="evenodd" clip-rule="evenodd" d="M308.726 255.073C307.251 255.633 305.732 255.968 304.2 256.073C305.732 255.968 307.251 255.633 308.726 255.073Z" fill="#06BFAD"/>
<path fill-rule="evenodd" clip-rule="evenodd" d="M301.462 255.63C301.791 256.035 302.124 256.368 302.462 256.63C302.124 256.373 301.791 256.04 301.462 255.63Z" fill="#06BFAD"/>
<path fill-rule="evenodd" clip-rule="evenodd" d="M304.201 256.539C303.625 257.035 303.048 256.784 302.475 255.786C303.048 256.784 303.625 257.035 304.201 256.539Z" fill="#06BFAD"/>
</g>
</svg>
